<svg width="82" height="84" viewBox="0 0 82 84" fill="none" xmlns="http://www.w3.org/2000/svg">
<rect width="82" height="84" rx="15" fill="#2D6A4F"/>
<path d="M54.8265 43.575C52.7265 41.475 49.4015 41.475 47.3015 43.575L44.6765 46.025C43.9765 46.725 42.7515 46.725 42.0515 46.025L36.9765 40.95C36.2765 40.25 36.2765 39.025 36.9765 38.325L39.4265 35.7C41.5265 33.6 41.5265 30.275 39.4265 28.175L35.5765 24.325C33.4765 22.225 30.1515 22.225 28.0515 24.325L24.2015 28.175C19.3015 33.075 22.1015 43.75 30.6765 52.325C37.3265 58.975 48.8765 64.75 54.8265 58.8L58.6765 54.95C60.7765 52.85 60.7765 49.525 58.6765 47.425L54.8265 43.575ZM56.2265 52.5L52.3765 56.35C48.8765 59.85 40.1265 56.875 33.1265 50.05C26.1265 43.225 23.1515 34.3 26.6515 30.8L30.5015 26.775C31.2015 26.075 32.4265 26.075 33.1265 26.775C38.7265 32.375 38.7265 31.5 34.3515 35.875C32.2515 37.975 32.2515 41.3 34.3515 43.4L39.4265 48.475C41.5265 50.575 44.8515 50.575 46.9515 48.475L49.5765 45.85C50.2765 45.15 51.5015 45.15 52.2015 45.85L56.0515 49.7C56.9265 50.575 56.9265 51.8 56.2265 52.5Z" fill="white"/>
<path d="M58.5 38.5C59.55 38.5 60.25 37.8 60.25 36.75C60.25 35.7 59.55 35 58.5 35C57.45 35 56.75 35.7 56.75 36.75C56.75 37.8 57.45 38.5 58.5 38.5Z" fill="white"/>
<path d="M51.5 38.5C52.55 38.5 53.25 37.8 53.25 36.75C53.25 35.7 52.55 35 51.5 35C50.45 35 49.75 35.7 49.75 36.75C49.75 37.8 50.45 38.5 51.5 38.5Z" fill="white"/>
<path d="M44.5 38.5C45.55 38.5 46.25 37.8 46.25 36.75C46.25 35.7 45.55 35 44.5 35C43.45 35 42.75 35.7 42.75 36.75C42.75 37.8 43.45 38.5 44.5 38.5Z" fill="white"/>
</svg>
