<svg width="88" height="73" viewBox="0 0 88 73" fill="none" xmlns="http://www.w3.org/2000/svg">
<g clip-path="url(#clip0_711_293)">
<mask id="mask0_711_293" style="mask-type:luminance" maskUnits="userSpaceOnUse" x="-1" y="0" width="89" height="58">
<path d="M87.9973 0H-0.0078125V57.1003H87.9973V0Z" fill="white"/>
</mask>
<g mask="url(#mask0_711_293)">
<path d="M53.6508 0H56.4276C56.4785 0.10233 56.5777 0.102317 56.6718 0.113311C59.5394 0.370717 62.3059 1.2978 64.7477 2.81957C68.0399 4.85349 70.5751 7.58935 72.5107 10.8825C74.6457 14.5191 75.8649 18.4448 76.2897 22.6032C76.3931 23.618 76.5907 24.3791 77.7599 24.5339C77.8525 24.5588 77.9411 24.597 78.0227 24.6472C83.1447 27.0896 86.0181 31.2488 87.401 36.5302C87.6477 37.4715 87.8037 38.4356 88.0021 39.3896V43.3644C87.8758 43.3914 87.8868 43.4929 87.8775 43.5834C87.6692 45.5546 87.0798 47.4667 86.1419 49.2141C83.8111 53.5272 80.061 55.8537 75.268 56.7409C74.5431 56.8745 73.7936 56.8458 73.089 57.0876H71.701C71.729 55.1484 71.3543 53.2574 70.9286 51.3808C70.3499 48.8615 69.5457 46.3991 68.5258 44.0232C67.3413 41.2543 65.875 38.614 64.1499 36.1437C62.6818 34.0369 61.002 32.0851 59.1365 30.3185C58.8915 30.0834 58.8406 29.8957 59.1619 29.6876C59.6919 29.3493 60.1938 28.9612 60.7441 28.6576C62.2482 27.8305 62.5755 25.7475 62.2304 24.3597C62.1456 24.0087 62.1151 23.5478 61.6521 23.3727V23.366C61.6192 23.0962 61.5037 22.8432 61.3215 22.6412C61.1375 22.4377 60.896 22.2946 60.6288 22.231L60.616 22.2192C60.5185 21.9131 60.293 21.7964 59.981 21.7964H59.9411L59.9199 21.7642C59.29 21.1426 58.5311 21.1105 57.7214 21.2872L57.4798 21.2957C57.291 21.2365 57.0884 21.2382 56.9007 21.3008C56.7146 21.3618 56.5528 21.4802 56.4386 21.639L56.4191 21.6534C55.9324 21.7558 55.55 21.9773 55.4313 22.4991L55.4415 22.4636L55.2906 22.6843C55.0472 22.7368 54.9701 22.9296 54.8921 23.1283C54.5911 23.8888 54.52 24.7206 54.6878 25.5208C54.7268 25.7255 54.7675 25.9538 54.5716 26.1018C54.3486 26.271 54.1773 26.0672 54.0052 25.9665C53.8331 25.8659 53.6576 25.7323 53.4821 25.613C52.0017 24.5982 50.4908 23.6273 48.8841 22.8137C46.2886 21.491 43.5785 20.4049 40.787 19.5688C37.0996 18.4778 33.3309 17.9289 29.49 17.8097C27.5681 17.7556 25.6447 17.8316 23.733 18.0372C22.2026 18.197 20.6748 18.3924 19.1834 18.7552C18.5237 18.9167 17.6869 18.8245 17.2969 19.6068C17.8268 18.2351 18.6094 17.0037 19.5208 15.8527C22.1382 12.5486 25.55 11.0567 29.8241 11.5439C31.3282 11.713 32.7518 12.1282 34.1762 12.5917C35.5641 13.0458 35.8177 12.9393 36.6121 11.7561C38.3078 9.22494 40.1731 6.83583 42.5472 4.86196C45.2705 2.5997 48.3008 0.971709 51.8372 0.310367C52.4273 0.214802 53.0649 0.23426 53.6508 0ZM74.5999 25.9513C74.6211 24.9192 74.5405 23.8876 74.3591 22.8712C73.6393 18.5328 71.5399 15.0113 67.9094 12.3955C65.5956 10.7252 62.9841 9.70023 60.2031 9.06426C58.9661 8.7801 57.7197 8.54162 56.4454 8.4968C55.9044 8.47735 55.45 8.68454 55.2736 9.23256C55.1041 9.76028 55.2067 10.2474 55.6653 10.6144C55.9333 10.8326 56.2665 10.8504 56.5904 10.8868C58.6634 11.1227 60.6906 11.5549 62.634 12.3075C66.2552 13.7123 69.1388 15.9441 70.7998 19.4893C72.1877 22.4492 72.3971 25.5682 71.9562 28.7557C71.8494 29.5439 72.2369 30.1612 72.9533 30.2965C73.6248 30.4226 74.2251 29.9667 74.3599 29.1971C74.5415 28.1251 74.6219 27.0383 74.5999 25.9513ZM70.2249 26.3623C70.2461 24.0239 69.8476 21.9494 68.7929 20.0576C66.1407 15.3064 61.6835 13.527 56.4988 13.0264C55.8264 12.9613 55.3423 13.4949 55.3296 14.1613C55.3152 14.9081 55.7781 15.3369 56.7175 15.4358C58.2276 15.5918 59.7101 15.947 61.1264 16.4921C65.136 18.0304 67.7661 21.4031 67.7652 25.865C67.7652 26.6972 67.7169 27.5226 67.6626 28.3514C67.6118 29.1269 68.0722 29.6369 68.753 29.6885C69.4338 29.7401 69.99 29.2656 70.0867 28.491C70.1833 27.7163 70.2605 26.9535 70.2249 26.3623ZM66.284 26.589C66.2518 25.2764 66.0975 24.1956 65.7371 23.1503C64.328 19.0749 60.2311 17.1957 56.4827 16.9767C55.7628 16.9344 55.3109 17.3945 55.2567 18.0693C55.2326 18.3657 55.3254 18.6597 55.5153 18.8888C55.7066 19.1213 55.9794 19.2725 56.2784 19.3117C57.2441 19.4741 58.2132 19.611 59.1399 19.9485C61.0196 20.6301 62.5127 21.7422 63.286 23.6231C63.7919 24.8538 63.948 26.1999 63.737 27.5133C63.6039 28.392 63.9914 29.0356 64.7477 29.1202C65.5956 29.2115 66.0873 28.7506 66.1636 27.7975C66.2026 27.3256 66.3137 26.8604 66.284 26.5966V26.589Z" fill="#7DC312"/>
<path d="M17.2753 19.6273C17.6653 18.8442 18.5021 18.9364 19.1618 18.7757C20.6532 18.412 22.181 18.2167 23.7114 18.056C25.6231 17.8511 27.5465 17.7754 29.4684 17.8293C33.3084 17.9427 37.0772 18.4966 40.7654 19.5884C43.5569 20.4246 46.267 21.5106 48.8625 22.8334C50.4692 23.6469 51.986 24.6161 53.4605 25.6327C53.6343 25.7519 53.8073 25.8796 53.9836 25.9862C54.16 26.0927 54.3304 26.2906 54.55 26.1215C54.7433 25.9735 54.7026 25.7451 54.6662 25.5405C54.4984 24.7402 54.5695 23.9084 54.8705 23.148C54.9476 22.9492 55.0256 22.7564 55.2681 22.704C54.7976 23.4651 54.6899 24.2939 54.7967 25.1565C55.0095 26.7208 54.6271 28.3079 53.725 29.6049C52.2218 31.8215 50.6278 33.9713 49.0253 36.1169C48.7548 36.4814 48.4725 36.5355 48.0503 36.4162C43.4218 35.0986 38.7966 35.1697 34.1868 36.5287C33.7086 36.6708 33.4237 36.5854 33.1295 36.182C31.3948 33.7802 29.738 31.3268 28.367 28.6975C28.1865 28.3491 28.0118 27.9939 27.9847 27.5837C27.8931 26.2027 27.6676 24.847 27.0851 23.5717C26.5764 22.452 25.8803 21.4879 24.5618 21.2113C22.5346 20.7885 20.6388 21.8549 20.0766 23.833C19.445 26.0487 19.8723 27.1896 21.4552 28.1698C21.8792 28.4311 22.3141 28.6772 22.7126 28.9715C23.7538 29.7402 24.9111 30.4473 25.5462 31.5932C26.6739 33.6373 27.8498 35.6475 28.9673 37.6924C29.4303 38.5381 29.4201 38.5305 28.6087 39.0455C22.3401 43.0316 18.6564 48.6519 17.5576 55.9064C17.505 56.2446 17.388 56.385 17.0268 56.4205C14.9835 56.6167 12.952 56.5711 10.9409 56.1601C8.21667 55.6036 5.83501 54.4162 3.93325 52.3857C1.70082 50.0008 0.61216 47.1279 0.231468 43.9591C0.211967 43.7984 0.263686 43.5963 0 43.5895V40.978C0.180595 40.8824 0.116157 40.7107 0.116157 40.5729C0.138502 39.7616 0.22354 38.9532 0.370517 38.155C1.08018 34.0829 2.62923 30.399 5.67985 27.4577C8.22345 25.0051 11.2758 23.8744 14.8682 24.3852C15.3421 24.4537 15.5117 24.3117 15.6363 23.8922C16.0543 22.4291 16.552 20.9847 17.2753 19.6273Z" fill="#69AF13"/>
<path d="M55.4133 22.513L55.4218 22.5054C55.4226 22.4961 55.4226 22.4868 55.4218 22.4775L55.4133 22.513ZM65.1366 56.0486V56.0368C65.078 55.8042 65.0333 55.5684 65.0026 55.3306C64.3243 50.9701 62.4972 47.1273 59.6043 43.7647C57.8761 41.7473 55.8089 40.0454 53.4954 38.7353C53.1113 38.5188 53.0062 38.3632 53.2953 37.9404C54.9147 35.6028 56.2849 33.108 57.8297 30.7197C58.3698 29.8842 59.2058 29.4064 60.0341 28.9438C61.0753 28.3611 61.7926 27.5813 62.1072 26.4312C62.4065 25.3377 62.1267 24.3482 61.6442 23.3782V23.3714L60.6209 22.2365L60.6082 22.2246C60.3589 22.1401 60.1707 21.9625 59.9731 21.8018L59.9333 21.8069L59.9112 21.7739C59.2263 21.4451 58.4735 21.2817 57.7135 21.2969L57.4719 21.3062L56.4307 21.6538L56.4112 21.6673L55.4328 22.502C55.4315 22.5456 55.4164 22.5877 55.3895 22.6221C55.3624 22.6573 55.3247 22.6828 55.2819 22.6948C54.8113 23.456 54.7036 24.2848 54.8104 25.1474C55.0228 26.7111 54.6404 28.2975 53.7387 29.5941C52.2355 31.8107 50.6415 33.9622 49.039 36.106C48.7686 36.4697 48.4862 36.5238 48.064 36.4037C43.4372 35.0844 38.8104 35.1546 34.2005 36.517C33.7232 36.6591 33.4374 36.5737 33.1432 36.1788C31.4085 33.7753 29.7518 31.3227 28.3808 28.6926C28.2002 28.345 28.0255 27.9898 27.9984 27.5788C27.9068 26.1978 27.6813 24.8421 27.0996 23.5676C26.5791 22.4564 25.8847 21.4914 24.5662 21.2149C22.539 20.792 20.6432 21.8576 20.081 23.8365C19.4494 26.0515 19.8767 27.1923 21.4596 28.1716C21.8836 28.4338 22.3185 28.6791 22.7179 28.9734C23.7582 29.7421 24.9155 30.45 25.5506 31.595C26.6783 33.6391 27.8534 35.6485 28.9717 37.6934C29.4347 38.5391 29.4245 38.5315 28.6131 39.0466C22.3445 43.0332 18.662 48.6532 17.5654 55.9065C17.5579 55.9594 17.5466 56.0117 17.5315 56.063V56.0723C17.4669 56.4088 17.4385 56.7513 17.4467 57.0939H65.2477C65.2493 56.7425 65.2121 56.3919 65.1366 56.0486ZM49.6062 46.0997C50.2481 45.1297 51.4775 45.2041 52.0015 46.2418C52.171 46.5801 52.3211 46.9285 52.2779 47.3235C52.2693 47.5111 52.2475 47.6979 52.2126 47.8825C52.0049 48.6774 51.4156 49.2128 50.7712 49.2187C50.1548 49.2263 49.5842 48.7282 49.3476 47.9417C49.2473 47.6357 49.2183 47.3108 49.2629 46.9919C49.3083 46.6725 49.4257 46.3674 49.6062 46.0997ZM30.1986 47.008C30.2834 46.1124 30.943 45.4088 31.6849 45.4088C32.4268 45.4088 33.0517 46.0777 33.1568 46.959C33.2127 47.2943 33.1891 47.6381 33.0881 47.9628C32.7905 48.7916 32.2216 49.2804 31.5899 49.2119C30.8888 49.1341 30.2834 48.4508 30.1944 47.6305C30.1885 47.5178 30.1885 47.4049 30.1944 47.2922C30.1944 47.2008 30.1859 47.1061 30.1944 47.0131L30.1986 47.008Z" fill="#F6F6F5"/>
<path d="M69.2623 57.0971C68.4992 56.8358 67.6836 56.9373 66.9086 56.7588C66.7043 56.7115 66.4932 56.6903 66.2863 56.654C65.1561 56.4552 65.1705 56.4527 64.9975 55.3355C64.3193 50.975 62.4921 47.1322 59.5992 43.7688C57.8714 41.7512 55.8042 40.0495 53.4903 38.7402C53.1062 38.5237 53.0011 38.3664 53.2902 37.9453C54.9096 35.6061 56.2798 33.1121 57.8246 30.7246C58.3647 29.8882 59.2007 29.4104 60.0291 28.9487C61.0702 28.3677 61.7875 27.5862 62.1021 26.4369C62.4014 25.3426 62.1216 24.3531 61.6392 23.3848C62.1021 23.5598 62.1335 24.0207 62.2174 24.3717C62.565 25.7595 62.2335 27.8391 60.7311 28.6696C60.1808 28.9723 59.6789 29.3597 59.149 29.6996C58.8276 29.906 58.8785 30.0946 59.1235 30.3297C60.9886 32.0967 62.6684 34.0485 64.137 36.1549C65.8616 38.6254 67.3279 41.2656 68.5128 44.0343C69.5328 46.4103 70.3369 48.8727 70.9156 51.392C71.3447 53.2703 71.7228 55.1613 71.6914 57.1005L69.2623 57.0971Z" fill="#69AF13"/>
<path d="M74.5986 25.9506C74.6229 27.0365 74.5454 28.1224 74.3671 29.1939C74.2357 29.9643 73.6312 30.4202 72.9605 30.2933C72.2432 30.158 71.8583 29.5407 71.9634 28.7524C72.4001 25.565 72.1889 22.4477 70.8069 19.4868C69.1426 15.9416 66.2505 13.7089 62.6335 12.3042C60.6902 11.5507 58.6621 11.1202 56.5891 10.8834C56.2652 10.847 55.932 10.8293 55.664 10.6111C55.2011 10.2407 55.1036 9.75692 55.2732 9.2292C55.4487 8.68117 55.9031 8.47398 56.4449 8.49343C57.7167 8.54079 58.9648 8.77928 60.2018 9.0609C62.9777 9.69687 65.59 10.7219 67.9081 12.393C71.5386 15.0046 73.6388 18.5244 74.3578 22.868C74.5392 23.8852 74.6199 24.9177 74.5986 25.9506Z" fill="#F6F6F5"/>
<path d="M70.2218 26.3634C70.2574 26.9554 70.1718 27.7259 70.0776 28.4946C69.9835 29.2634 69.44 29.7437 68.7431 29.6913C68.0462 29.6389 67.6019 29.1306 67.6527 28.3551C67.707 27.5263 67.7545 26.7 67.7553 25.8678C67.7553 21.4067 65.127 18.0323 61.1174 16.4948C59.7009 15.9506 58.2184 15.5957 56.7085 15.4394C55.7716 15.3404 55.3087 14.9108 55.3205 14.1649C55.3324 13.4959 55.8182 12.9623 56.4897 13.0291C61.6778 13.5298 66.1351 15.3125 68.7838 20.0603C69.8445 21.9454 70.243 24.025 70.2218 26.3634Z" fill="#F6F6F5"/>
<path d="M66.2809 26.5873C66.3105 26.8521 66.1961 27.3164 66.1647 27.7866C66.0884 28.7388 65.5958 29.1998 64.7488 29.1093C63.9857 29.0247 63.605 28.3836 63.7381 27.5024C63.9492 26.1889 63.7931 24.8429 63.287 23.6121C62.5146 21.7313 61.0207 20.6217 59.141 19.9367C58.216 19.5984 57.2451 19.4622 56.2794 19.2999C55.9802 19.2614 55.7071 19.1101 55.5164 18.877C55.3278 18.6473 55.2366 18.3533 55.262 18.0575C55.3163 17.3809 55.7707 16.9226 56.488 16.9657C60.233 17.1923 64.3308 19.0673 65.7416 23.1394C66.0943 24.1931 66.2478 25.2748 66.2809 26.5873Z" fill="#F6F6F5"/>
<path d="M59.9016 21.7762C59.2169 21.4463 58.4634 21.2828 57.7031 21.2993C58.5103 21.1225 59.2734 21.1496 59.9016 21.7762Z" fill="#69AF13"/>
<path d="M61.6336 23.3738L60.6094 22.2363C60.8764 22.3004 61.1178 22.4434 61.3021 22.6465C61.485 22.8491 61.6008 23.1031 61.6336 23.3738Z" fill="#69AF13"/>
<path d="M56.4018 21.6699L55.4141 22.5156C55.5336 21.9938 55.9152 21.7723 56.4018 21.6699Z" fill="#69AF13"/>
<path d="M57.4631 21.3068L56.4219 21.6544C56.5354 21.494 56.6973 21.374 56.884 21.3119C57.0716 21.2494 57.2743 21.2476 57.4631 21.3068Z" fill="#69AF13"/>
<path d="M60.596 22.2296C60.3616 22.1259 60.1468 21.9829 59.9609 21.8067C60.273 21.8025 60.4985 21.9235 60.596 22.2296Z" fill="#69AF13"/>
<path d="M55.4238 22.4766C55.4279 22.5252 55.4154 22.5738 55.3885 22.6144C55.3607 22.6548 55.3201 22.6846 55.2734 22.699L55.4238 22.4766Z" fill="#69AF13"/>
<path d="M30.192 47.2943C30.192 47.2005 30.1835 47.1057 30.192 47.0127C30.2818 46.1154 30.9398 45.4126 31.6817 45.416C32.4235 45.4194 33.0493 46.085 33.1544 46.9662C33.2104 47.3014 33.1865 47.6449 33.0849 47.9692C32.7873 48.7989 32.2184 49.286 31.5867 49.2183C30.8855 49.1397 30.281 48.4572 30.192 47.6352C30.186 47.5216 30.186 47.4079 30.192 47.2943Z" fill="#69AF13"/>
<path d="M52.2798 47.3246C52.2714 47.5123 52.2493 47.6991 52.2137 47.8836C52.0068 48.6785 51.4167 49.213 50.7723 49.2198C50.1551 49.2266 49.5853 48.7284 49.347 47.9411C49.2471 47.6353 49.2181 47.3108 49.2623 46.9922C49.3063 46.6733 49.4223 46.3686 49.6014 46.1008C50.2424 45.1308 51.4718 45.2035 51.9958 46.2412C52.1738 46.5761 52.3273 46.9313 52.2798 47.3246Z" fill="#69AF13"/>
</g>
</g>
<path d="M7.28574 62.822C7.49629 64.0569 7.78862 65.2701 8.07399 66.4833L8.65952 65.4871C8.96751 64.9664 9.09453 64.4093 9.09453 64.1168C9.09453 63.6682 8.96751 63.413 8.65952 63.1284L9.58262 62.7812C9.84363 62.901 10.1159 63.1032 10.1159 63.485C10.1159 64.1888 8.96751 65.3795 8.53163 66.21L7.96176 67.2513L7.22571 67.4683L6.46009 63.9268H6.4453C5.95721 65.0202 5.4465 66.1128 5.0489 67.2513L4.33635 67.4683C4.05794 66.0303 3.86305 64.6045 3.42021 63.2455L2.625 63.1587L3.12005 62.9045H5.162L4.92884 63.1587L4.57647 63.2455C4.77136 64.2869 5.00366 65.2892 5.09849 66.315H5.11328C5.57875 65.2224 6.08162 64.1455 6.50968 63.0355L7.28574 62.822Z" fill="white"/>
<path d="M13.0448 66.6121C12.1069 67.1588 11.7693 67.3532 11.6789 67.3836C11.5397 67.4231 11.3963 67.4458 11.2517 67.4513C10.6287 67.4513 10.1328 67.0842 10.1328 66.1036C10.1328 65.4961 10.2198 64.6882 10.8758 64.4113C11.169 64.2838 11.7989 63.9844 12.1295 63.9844C12.5419 63.9844 12.722 64.2091 12.722 64.5832C12.7226 64.7209 12.6885 64.8566 12.623 64.9779C12.5575 65.0991 12.4627 65.2021 12.347 65.2774C12.0999 65.4553 11.8418 65.6176 11.5745 65.7634L11.109 66.0237C11.2134 66.5253 11.4761 66.7431 11.9642 66.7431C12.3175 66.7431 12.782 66.5331 13.1048 66.3535L13.0448 66.6121ZM11.6119 65.4293C11.7073 65.3695 11.7861 65.2867 11.8411 65.1886C11.8961 65.0905 11.9256 64.9802 11.9268 64.8678C11.9268 64.591 11.7989 64.374 11.604 64.374C11.2734 64.374 11.0185 64.7932 11.0185 65.3998C11.0187 65.5297 11.0262 65.6595 11.0411 65.7886L11.6119 65.4293Z" fill="white"/>
<path d="M15.4271 62.5908C15.2264 62.5217 15.0163 62.4839 14.8041 62.4788C14.5718 62.4788 14.4813 62.5838 14.3909 63.4143L14.2786 64.5598L14.7893 64.2309C15.0089 64.0749 15.2706 63.9887 15.5402 63.9836C15.8699 63.9836 16.418 64.1337 16.418 65.2116C16.418 65.8477 16.2075 66.6868 15.896 66.8439L14.7476 67.4279C14.6657 67.4426 14.5828 67.4502 14.4996 67.4505C14.1768 67.4505 14.0037 67.3828 13.674 67.2032C13.5063 67.3093 13.3275 67.3966 13.1406 67.4635L13.4634 63.4881C13.4939 63.1358 13.5391 63.0238 13.7035 62.904L14.6345 62.2454C14.9198 62.0432 14.9947 61.998 15.2574 61.998C15.4487 62.0064 15.6393 62.0264 15.8281 62.0579L15.4271 62.5908ZM14.1586 66.5827C14.2708 66.7623 14.7067 67.0166 14.9546 67.0166C15.2391 67.0166 15.4418 66.4855 15.4418 65.7288C15.4418 64.7742 15.2017 64.6006 14.8868 64.6006C14.6611 64.6129 14.4453 64.6968 14.2708 64.8401L14.1586 66.5827Z" fill="white"/>
<path d="M18.0147 67.1734L17.0168 67.4511L17.129 66.0435C17.1595 65.6833 17.1969 65.1817 17.1969 64.9579C17.1969 64.7782 17.1099 64.688 16.9359 64.688C16.7916 64.6942 16.6482 64.7142 16.5078 64.7478L16.5304 64.5743L16.8384 64.4467C17.4762 64.2072 17.9938 63.9824 18.0765 63.9824C18.1365 63.9824 18.2192 64.0423 18.2192 64.1699C18.2192 64.3946 18.2044 64.6263 18.1817 64.8511L19.2327 64.3044C19.5477 64.1395 19.8931 63.9824 20.0436 63.9824C20.0937 63.9947 20.1398 64.0196 20.1776 64.0547C20.2154 64.0898 20.2435 64.1339 20.2594 64.1829C20.2595 64.3056 20.2519 64.4282 20.2368 64.55L20.1619 65.3813C20.1382 65.5801 20.1257 65.78 20.1245 65.9801C20.1245 66.2275 20.1993 66.5711 20.4847 66.5711C20.6648 66.5711 20.8971 66.4513 21.1451 66.3316V66.5867L20.0262 67.2306C19.8087 67.3504 19.6364 67.4554 19.5164 67.4554C19.4337 67.4554 19.3589 67.3947 19.2606 67.3348C19.1623 67.2749 19.1031 66.9877 19.1031 66.7586C19.1031 66.2873 19.2006 65.2763 19.2006 64.9995C19.2037 64.9702 19.2003 64.9406 19.1904 64.9129C19.1806 64.8851 19.1647 64.8599 19.1438 64.8391C19.123 64.8183 19.0977 64.8024 19.0699 64.7926C19.0421 64.7828 19.0124 64.7794 18.983 64.7826C18.7803 64.7826 18.5176 64.9318 18.1722 65.134L18.0147 67.1734Z" fill="white"/>
<path d="M22.2969 67.4663C22.0314 66.0404 21.6855 64.6306 21.2607 63.2436L20.3906 63.1568L20.8256 62.9025H22.9877L22.7919 63.1568L22.4169 63.2436L23.1904 66.53L23.4601 66.1638C23.8577 65.624 24.3301 64.8082 24.3301 64.1192C24.3301 63.6931 24.2022 63.3781 23.8646 63.1091L24.3823 62.8843C24.5039 62.8303 24.633 62.7949 24.7651 62.7793C24.8704 62.7793 25.3507 63.0188 25.3507 63.6627C25.3507 64.3066 24.2396 65.3619 23.6976 66.2531L23.0599 67.3015L22.2969 67.4663Z" fill="white"/>
<path d="M27.2907 67.2408C27.0426 67.3638 26.7721 67.4353 26.4955 67.4508C25.7072 67.4508 25.4297 66.7844 25.4297 66.1101C25.4297 65.8185 25.5045 64.9871 25.8499 64.7216C26.2397 64.4074 27.148 63.9805 27.6587 63.9805C28.2816 63.9805 28.7897 64.3476 28.7897 65.2605C28.7897 66.2151 28.3991 66.721 28.2042 66.8104L27.2907 67.2408ZM27.2185 66.9709C27.6387 66.9709 27.7735 66.4095 27.7735 65.6762C27.7735 64.6955 27.3838 64.3744 27.0532 64.3744C26.7982 64.3744 26.4528 64.6209 26.4528 65.5642C26.4502 66.485 26.7652 66.9709 27.2185 66.9709Z" fill="white"/>
<path d="M29.0686 64.4999L29.4166 64.3801C29.6193 64.3133 30.4746 63.9835 30.6251 63.9835C30.6728 63.9856 30.7191 64.0007 30.7588 64.0271C30.7985 64.0536 30.8302 64.0904 30.8504 64.1336L30.7303 65.3686C30.7077 65.6454 30.6703 65.983 30.6703 66.1496C30.6703 66.3674 30.7225 66.6139 30.9557 66.6139C31.2106 66.6139 31.4359 66.4941 31.6517 66.4047V66.659C31.449 66.7935 30.1657 67.453 29.9856 67.453C29.9013 67.4349 29.8218 67.3991 29.7524 67.348C29.6854 67.2612 29.648 67.0009 29.648 66.7787C29.648 66.6295 29.6628 66.4646 29.715 65.8806C29.7524 65.4831 29.7829 65.0639 29.7829 64.926C29.7829 64.7385 29.6959 64.6413 29.4897 64.6413C29.3453 64.653 29.2023 64.6779 29.0625 64.716L29.0686 64.4999ZM30.9296 63.1227L30.2771 63.7588L29.7289 63.0645L30.4415 62.4883L30.9296 63.1227Z" fill="white"/>
<path d="M34.6675 66.5969L33.5861 67.233C33.4848 67.2975 33.3765 67.3502 33.2633 67.3901C33.1109 67.4262 32.9552 67.4466 32.7987 67.4508C31.9287 67.4508 31.6877 66.8286 31.6877 66.0875C31.6837 65.6894 31.7524 65.2939 31.8904 64.9203C31.9426 64.778 32.0479 64.66 32.5133 64.3996C32.9483 64.1601 33.3233 63.9805 33.5417 63.9805C33.9689 63.9805 34.2473 64.2052 34.3073 64.6747L33.6243 65.1373L33.5861 65.1069C33.5634 64.8596 33.4434 64.3736 33.1136 64.3736C32.7378 64.3736 32.6177 64.9272 32.6177 65.5564C32.6177 66.1699 32.7456 66.7471 33.4512 66.7471C33.8419 66.7471 34.3595 66.5292 34.6971 66.3652L34.6675 66.5969Z" fill="white"/>
<path d="M37.5144 66.6121C36.5757 67.1588 36.2381 67.3532 36.1485 67.3836C36.009 67.4231 35.8653 67.4458 35.7204 67.4513C35.0975 67.4513 34.6016 67.0842 34.6016 66.1036C34.6016 65.4961 34.6886 64.6882 35.3454 64.4113C35.6378 64.2838 36.2685 63.9844 36.5983 63.9844C37.0115 63.9844 37.1916 64.2091 37.1916 64.5832C37.192 64.721 37.1578 64.8567 37.0922 64.9779C37.0265 65.0992 36.9315 65.2021 36.8158 65.2774C36.5688 65.4555 36.3107 65.6178 36.0432 65.7634L35.5777 66.0237C35.683 66.5253 35.9458 66.7431 36.433 66.7431C36.7862 66.7431 37.2517 66.5331 37.5745 66.3535L37.5144 66.6121ZM36.0806 65.4293C36.1761 65.3696 36.255 65.2868 36.3101 65.1887C36.3651 65.0906 36.3945 64.9802 36.3956 64.8678C36.3956 64.591 36.2685 64.374 36.0728 64.374C35.7457 64.3732 35.4846 64.7897 35.4846 65.3972C35.4848 65.5271 35.4924 65.6569 35.5073 65.786L36.0806 65.4293Z" fill="white"/>
<path d="M41.2666 63.2273H40.5453C40.4409 63.2273 40.3209 63.2499 40.2382 63.4668L39.8902 64.365L39.3047 64.5299L39.5596 62.8229C39.7397 62.8524 39.9076 62.8897 40.1077 62.9097C40.3539 62.9452 40.602 62.9652 40.8507 62.9696H42.757C43.1922 62.9805 43.6269 62.9302 44.0481 62.8203L44.1159 64.2088L43.6279 64.523L43.4408 63.8122C43.3051 63.2915 43.1328 63.2282 42.4794 63.2282H42.3298L42.1036 67.0006L43.1694 67.0873L42.9371 67.3425H39.878L40.2452 67.0431L41.0413 66.9563L41.2666 63.2273Z" fill="white"/>
<path d="M46.6932 66.6121C45.7553 67.1588 45.4178 67.3532 45.3273 67.3836C45.1881 67.4231 45.0447 67.4458 44.9001 67.4513C44.2772 67.4513 43.7812 67.0842 43.7812 66.1036C43.7812 65.4961 43.8683 64.6882 44.5243 64.4113C44.8175 64.2838 45.4474 63.9844 45.778 63.9844C46.1904 63.9844 46.3705 64.2091 46.3705 64.5832C46.371 64.7209 46.337 64.8566 46.2715 64.9779C46.206 65.0991 46.1111 65.2021 45.9955 65.2774C45.7483 65.4553 45.4903 65.6176 45.2229 65.7634L44.7574 66.0237C44.8618 66.5253 45.1246 66.7431 45.6127 66.7431C45.9659 66.7431 46.4314 66.5331 46.7541 66.3535L46.6932 66.6121ZM45.2603 65.4293C45.3557 65.3695 45.4345 65.2867 45.4896 65.1886C45.5446 65.0905 45.574 64.9802 45.5752 64.8678C45.5752 64.591 45.4474 64.374 45.2525 64.374C44.9219 64.374 44.6669 64.7932 44.6669 65.3998C44.6671 65.5297 44.6747 65.6595 44.6896 65.7886L45.2603 65.4293Z" fill="white"/>
<path d="M49.6788 66.5974L48.5982 67.2335C48.4959 67.299 48.3864 67.3529 48.272 67.394C48.1193 67.4301 47.9633 67.4505 47.8065 67.4548C46.9365 67.4548 46.6955 66.8325 46.6955 66.0914C46.6915 65.6933 46.7602 65.2978 46.8982 64.9242C46.9504 64.7819 47.0557 64.6639 47.5211 64.4035C47.9561 64.164 48.332 63.9844 48.5495 63.9844C48.9776 63.9844 49.2551 64.2091 49.3151 64.6786L48.6322 65.136L48.5947 65.1056C48.5721 64.8583 48.4521 64.3723 48.1215 64.3723C47.7465 64.3723 47.6264 64.926 47.6264 65.5551C47.6264 66.1687 47.7534 66.7458 48.459 66.7458C48.8497 66.7458 49.3673 66.5279 49.7049 66.3639L49.6788 66.5974Z" fill="white"/>
<path d="M49.9745 63.7502C49.9893 63.4898 50.012 63.1809 50.1546 63.009C50.3286 62.799 50.7254 62.5526 51.0334 62.3729C51.3109 62.2081 51.6789 62.0059 51.9634 62.0059C52.1766 62.0155 52.3881 62.0481 52.5942 62.1031L52.1966 62.6498C51.9663 62.55 51.7193 62.4941 51.4684 62.4849C51.2805 62.4849 51.0777 62.53 50.996 63.3831L50.8681 64.6935L51.7381 64.3463C51.8355 64.3082 52.7508 63.994 52.8413 63.994C52.9013 63.994 53.0292 64.0808 53.0292 64.1736C53.0292 64.2188 52.9988 64.5104 52.9909 64.6301C52.9387 65.4467 52.9083 65.7912 52.9083 66.1427C52.9083 66.3527 52.9387 66.5766 53.2015 66.5766C53.3816 66.5766 53.6365 66.502 53.9593 66.3371L53.914 66.5922L52.5785 67.3481C52.4872 67.4113 52.3812 67.4501 52.2705 67.4609C52.1818 67.4504 52.0983 67.4139 52.0304 67.3559C51.9852 67.3255 51.8425 66.8769 51.8425 66.6296C51.8425 66.4794 51.8799 66.2026 51.9104 65.8433L51.9556 65.2897C51.9704 65.1248 51.9782 65.005 51.9782 64.9425C51.9782 64.769 51.8912 64.6952 51.7224 64.6952C51.5049 64.6952 51.2352 64.8002 50.8524 65.0024L50.6871 67.1806L49.7188 67.4583L49.9745 63.7502Z" fill="white"/>
<path d="M55.6363 66.7626L56.2897 65.8418L56.3724 65.8939C56.4086 66.2037 56.5564 66.4898 56.7883 66.6991C57.0202 66.9084 57.3204 67.0265 57.633 67.0316C58.0089 67.0316 58.3917 66.8519 58.3917 66.4328C58.3917 66.0136 58.0237 65.8487 57.6861 65.722L57.1232 65.5199C56.5603 65.3246 56.1844 64.9506 56.1844 64.3665C56.1844 63.2956 57.2581 62.7793 57.9863 62.7793C58.6092 62.7793 59.0068 63.0188 59.1121 63.5204L58.4291 64.1721L58.3421 64.127C58.3125 63.6402 58.102 63.1238 57.5391 63.1238C57.2163 63.1238 56.9388 63.3338 56.9388 63.7452C56.9388 64.2016 57.2467 64.3891 57.6444 64.5167L58.6727 64.8456C59.0703 64.9801 59.3252 65.25 59.3252 65.6839C59.3252 66.6124 58.162 67.4663 57.0284 67.4663C56.4881 67.4663 55.9626 67.2789 55.6172 66.8146L55.6363 66.7626Z" fill="white"/>
<path d="M61.4938 67.2408C61.2458 67.3639 60.9752 67.4353 60.6986 67.4508C59.9104 67.4508 59.6328 66.7844 59.6328 66.1101C59.6328 65.8185 59.7076 64.9871 60.053 64.7216C60.4437 64.4074 61.352 63.9805 61.8618 63.9805C62.4848 63.9805 62.9929 64.3476 62.9929 65.2605C62.9929 66.2151 62.6022 66.721 62.4073 66.8104L61.4938 67.2408ZM61.419 66.9709C61.8392 66.9709 61.9749 66.4095 61.9749 65.6762C61.9749 64.6955 61.5843 64.3744 61.2537 64.3744C60.9988 64.3744 60.6534 64.6209 60.6534 65.5642C60.649 66.485 60.9648 66.9709 61.4146 66.9709H61.419Z" fill="white"/>
<path d="M65.5089 62.629C65.3584 62.5466 65.1487 62.3886 64.9686 62.3886C64.8103 62.3886 64.7885 62.4754 64.7502 62.8382C64.7285 63.0551 64.7059 63.2799 64.6832 63.4968C64.5701 64.5903 64.5179 65.1214 64.5179 65.728C64.5179 66.2747 64.6754 66.6114 64.946 66.6114C65.1409 66.6114 65.5385 66.4023 65.729 66.2895L65.6994 66.5368C65.3688 66.7841 64.986 67.0011 64.611 67.231C64.4083 67.3734 64.2126 67.4489 64.1299 67.4489C64.0487 67.4404 63.9724 67.406 63.9124 67.3508C63.7628 67.1191 63.5 66.5698 63.5 66.4526C63.5 66.161 63.6201 64.9027 63.7097 63.653C63.7323 63.3311 63.7549 62.8963 63.9054 62.7687C64.183 62.5145 64.5432 62.3201 64.8625 62.1326C64.9915 62.047 65.1425 62.0002 65.2975 61.9981C65.5294 61.9959 65.7593 62.0417 65.9726 62.1326L65.5089 62.629Z" fill="white"/>
<path d="M65.2353 64.5599L65.8138 64.3282C66.2941 64.1339 66.7665 63.9811 66.8422 63.9811C66.8944 63.9811 66.9919 64.041 66.9919 64.0861C66.9908 64.1587 66.9859 64.2311 66.9771 64.3031L66.8344 65.5085C66.8196 65.6655 66.7892 65.8903 66.7892 65.9806C66.7892 66.1446 66.8762 66.6088 67.105 66.6088C67.3146 66.6088 67.6679 66.4066 67.7653 66.2617L67.9532 64.218L68.9973 63.9785C68.9146 64.6302 68.8094 65.498 68.8094 65.925C68.8094 66.352 68.8842 66.6063 69.1026 66.6063C69.2444 66.6063 69.635 66.404 69.7255 66.3667V66.6219L68.3517 67.3699C68.2844 67.408 68.2107 67.4336 68.1342 67.4454C68.0447 67.4338 67.9621 67.3911 67.901 67.3248C67.8636 67.2727 67.7888 66.8388 67.7357 66.5611L66.9405 67.0558C66.5803 67.2805 66.295 67.4454 66.1671 67.4454C66.0782 67.4326 65.9963 67.3901 65.9348 67.3248C65.8279 67.0949 65.7715 66.8449 65.7695 66.5915C65.7695 66.3372 65.9043 65.1917 65.9043 65.0294C65.9043 64.7977 65.8069 64.6823 65.5563 64.6823C65.4424 64.689 65.3294 64.7064 65.2188 64.7344L65.2353 64.5599Z" fill="white"/>
<path d="M71.2323 63.0098L71.0827 64.3983H72.0397C71.9344 64.5475 71.8065 64.6977 71.6421 64.6977H71.0487C71.0004 65.08 70.9728 65.4648 70.9661 65.8501C70.9661 66.1426 71.1401 66.6667 71.469 66.6667C71.6116 66.6667 71.9866 66.5088 72.165 66.442L72.1424 66.6737L71.857 66.8307C71.0835 67.2577 70.6337 67.453 70.5737 67.453C70.4747 67.4365 70.3815 67.395 70.3031 67.3323C70.0755 67.0182 69.9498 66.642 69.9429 66.2545C69.9429 65.8206 70.0404 65.1394 70.0708 64.6977H69.0781L69.4983 64.3983H70.1074L70.2422 63.3647L71.2323 63.0098Z" fill="white"/>
<path d="M72.0339 64.4999L72.3871 64.3801C72.5898 64.3133 73.445 63.9835 73.5956 63.9835C73.6433 63.9856 73.6896 64.0007 73.7293 64.0271C73.769 64.0536 73.8007 64.0904 73.8209 64.1336L73.7008 65.3686C73.6782 65.6454 73.6408 65.983 73.6408 66.1496C73.6408 66.3674 73.693 66.6139 73.9253 66.6139C74.1811 66.6139 74.4064 66.4941 74.6213 66.4047V66.659C74.4186 66.7935 73.1353 67.453 72.9552 67.453C72.8709 67.4349 72.7914 67.3991 72.7221 67.348C72.6542 67.2612 72.6168 67.0009 72.6168 66.7787C72.6168 66.6295 72.6324 66.4646 72.6846 65.8806C72.7221 65.4831 72.7525 65.0639 72.7525 64.926C72.7525 64.7385 72.6655 64.6413 72.4593 64.6413C72.3146 64.653 72.1713 64.678 72.0312 64.716L72.0339 64.4999ZM73.8957 63.1227L73.2423 63.7588L72.6951 63.0645L73.4076 62.4883L73.8957 63.1227Z" fill="white"/>
<path d="M76.5025 67.2408C76.2544 67.3638 75.9839 67.4353 75.7073 67.4508C74.919 67.4508 74.6406 66.7844 74.6406 66.1101C74.6406 65.8185 74.7163 64.9871 75.0617 64.7216C75.4515 64.4074 76.3598 63.9805 76.8705 63.9805C77.4934 63.9805 78.0015 64.3476 78.0015 65.2605C78.0015 66.2151 77.6118 66.721 77.4169 66.8104L76.5025 67.2408ZM76.4277 66.9709C76.8479 66.9709 76.9827 66.4095 76.9827 65.6762C76.9827 64.6955 76.593 64.3744 76.2624 64.3744C76.0074 64.3744 75.662 64.6209 75.662 65.5642C75.662 66.485 75.977 66.9709 76.4277 66.9709Z" fill="white"/>
<path d="M79.6006 67.1734L78.6018 67.4511L78.715 66.0435C78.7445 65.6833 78.7819 65.1817 78.7819 64.9579C78.7819 64.7782 78.7002 64.688 78.5209 64.688C78.3769 64.6942 78.2339 64.7142 78.0938 64.7478L78.1164 64.5743L78.4235 64.4467C79.0621 64.2072 79.5798 63.9824 79.6624 63.9824C79.7224 63.9824 79.8051 64.0423 79.8051 64.1699C79.8051 64.3946 79.7903 64.6263 79.7677 64.8511L80.8178 64.3044C81.1336 64.1395 81.479 63.9824 81.6287 63.9824C81.6784 63.9939 81.7245 64.0177 81.7625 64.0517C81.8005 64.0857 81.8293 64.1288 81.8462 64.1768C81.8467 64.2995 81.8391 64.4222 81.8236 64.5439L81.7487 65.3753C81.725 65.574 81.7125 65.7739 81.7113 65.9741C81.7113 66.2214 81.7862 66.565 82.0715 66.565C82.2516 66.565 82.4848 66.4453 82.7319 66.3255V66.5807L81.6139 67.2246C81.3964 67.3443 81.2232 67.4493 81.1032 67.4493C81.0162 67.4493 80.9457 67.3886 80.8483 67.3287C80.7508 67.2688 80.6908 66.9816 80.6908 66.7525C80.6908 66.2813 80.7882 65.2703 80.7882 64.9934C80.7914 64.9642 80.7879 64.9346 80.7781 64.9068C80.7683 64.8791 80.7524 64.8539 80.7315 64.833C80.7107 64.8122 80.6854 64.7963 80.6576 64.7866C80.6297 64.7768 80.6001 64.7733 80.5707 64.7765C80.368 64.7765 80.1053 64.9257 79.7599 65.1279L79.6006 67.1734Z" fill="white"/>
<path d="M84.7152 64.9791H84.6404C84.4455 64.6875 84.1828 64.4176 83.8 64.4176C83.7086 64.4219 83.622 64.4597 83.5568 64.5238C83.4916 64.5879 83.4524 64.6737 83.4467 64.7648C83.4467 65.439 85.038 65.1396 85.038 66.1654C85.038 66.8909 83.8974 67.4532 83.3945 67.4532C82.742 67.4532 82.5315 67.0705 82.4375 66.7642L83.0465 66.3372C83.1518 66.7043 83.2719 67.1087 83.7295 67.1087C83.7933 67.1127 83.8572 67.104 83.9175 67.0831C83.9779 67.0621 84.0334 67.0294 84.081 66.9869C84.1285 66.9443 84.1671 66.8927 84.1944 66.8351C84.2218 66.7775 84.2373 66.715 84.2402 66.6514C84.2402 66.083 82.7838 66.3225 82.7838 65.3115C82.7838 64.8845 83.512 63.9863 84.2776 63.9863C84.6604 63.9863 84.931 64.166 85.0511 64.4133L84.7152 64.9791Z" fill="white"/>
<path d="M26.2905 71.6585L25.9225 71.951L25.6406 71.5987L26.0321 71.3027L26.2905 71.6585Z" fill="#9AEE19"/>
<path d="M27.2749 71.6581L26.9078 71.9506L26.625 71.5982L27.0174 71.2988L27.2749 71.6581Z" fill="#9AEE19"/>
<path d="M28.2593 71.6585L27.8921 71.951L27.6094 71.5987L28.0018 71.3027L28.2593 71.6585Z" fill="#9AEE19"/>
<path d="M29.8075 69.7441C30.4957 69.7441 30.8777 70.0262 30.8777 70.6987C30.8777 71.5405 30.4183 71.9458 29.6309 71.9458C28.7653 71.9458 28.5469 71.4251 28.5469 70.8853C28.5469 70.5052 28.6878 69.7441 29.8075 69.7441ZM29.7084 71.8269C30.1608 71.8269 30.3339 71.4147 30.3339 70.7855C30.3339 70.2466 30.1503 69.8596 29.744 69.8596C29.3377 69.8596 29.0906 70.2258 29.0906 70.9009C29.0906 71.4103 29.2777 71.8295 29.7084 71.8295V71.8269Z" fill="#9AEE19"/>
<path d="M30.9245 70.5841L31.1968 70.4748C31.3532 70.4073 31.515 70.353 31.6806 70.3125C31.7049 70.3125 31.751 70.3411 31.751 70.362C31.7504 70.3962 31.7481 70.4304 31.7441 70.4644L31.6771 71.0311C31.6701 71.1057 31.6562 71.2107 31.6562 71.2532C31.6562 71.3304 31.698 71.5491 31.8041 71.5491C31.9239 71.5343 32.0342 71.4766 32.1147 71.3869L32.2017 70.4253L32.6924 70.3125C32.6532 70.6197 32.6054 71.0276 32.6054 71.2289C32.6054 71.4302 32.6411 71.5491 32.7437 71.5491C32.8457 71.5237 32.9442 71.4858 33.0369 71.4363V71.5561L32.3905 71.9067C32.3587 71.9245 32.3239 71.9366 32.2878 71.9423C32.2459 71.9365 32.2072 71.9166 32.1782 71.8858C32.1446 71.7679 32.1187 71.6479 32.1008 71.5266L31.7267 71.7591C31.5527 71.8642 31.423 71.9423 31.363 71.9423C31.3212 71.9362 31.2826 71.9164 31.2534 71.8858C31.2027 71.777 31.176 71.6587 31.1751 71.5387C31.1751 71.419 31.2395 70.88 31.2395 70.8063C31.2395 70.6969 31.1933 70.6405 31.0733 70.6405C31.0195 70.6435 30.9662 70.6517 30.9141 70.6648L30.9245 70.5841Z" fill="#9AEE19"/>
<path d="M34.2069 70.7787C34.1321 70.7058 34.035 70.66 33.9311 70.6486C33.8511 70.6605 33.7757 70.6934 33.7127 70.744C33.684 70.9306 33.6492 71.5502 33.6379 71.8071L33.1542 71.9485L33.2038 71.4279C33.2255 71.2126 33.2499 70.9453 33.2499 70.7657C33.2499 70.6633 33.1968 70.646 33.1577 70.646C33.0785 70.6468 32.9996 70.6549 32.9219 70.6703L32.9393 70.5757L33.4509 70.3709C33.512 70.3483 33.5745 70.3295 33.6379 70.3145C33.6492 70.3145 33.6875 70.3639 33.7093 70.3891V70.6217L33.7728 70.5653C33.8824 70.4733 34.0338 70.3145 34.126 70.3145C34.2123 70.3212 34.2975 70.3378 34.38 70.3639L34.2069 70.7787Z" fill="#9AEE19"/>
<path d="M35.5103 69.8034H35.9757C36.2272 69.8034 36.4743 69.793 36.7248 69.793C37.1024 69.793 37.3887 69.8563 37.3887 70.2859C37.3887 70.6912 37.1659 71.0183 36.4882 71.0183C36.4124 71.0212 36.3364 71.0154 36.262 71.001V70.9203H36.2872C36.5978 70.9203 36.8449 70.7927 36.8449 70.3458C36.8449 70.0221 36.6709 69.9336 36.3716 69.9336C36.3232 69.9331 36.2749 69.9366 36.2272 69.944C36.195 70.5289 36.128 71.237 36.1071 71.7334L36.6291 71.7759C36.6011 71.8113 36.5658 71.8403 36.5255 71.861C36.4853 71.8817 36.4411 71.8935 36.396 71.8957H35.1953L35.3371 71.7759L35.6051 71.7334C35.6547 71.152 35.6973 70.5532 35.7252 69.9657L35.3719 69.9231L35.5103 69.8034Z" fill="#9AEE19"/>
<path d="M38.7956 71.5491C38.3545 71.8095 38.1953 71.8963 38.1527 71.9119C38.0872 71.9305 38.0197 71.9413 37.9517 71.944C37.6585 71.944 37.4297 71.7704 37.4297 71.3096C37.4297 71.0241 37.4723 70.644 37.7777 70.5138C37.9152 70.4539 38.2127 70.3125 38.3676 70.3125C38.5616 70.3125 38.6469 70.4184 38.6469 70.5945C38.6474 70.6593 38.6318 70.7232 38.6014 70.7805C38.571 70.8377 38.5269 70.8866 38.4729 70.9226C38.3565 71.0061 38.2351 71.0824 38.1092 71.1508L37.8899 71.274C37.9395 71.5101 38.0639 71.6125 38.2928 71.6125C38.4581 71.6125 38.6773 71.5135 38.8296 71.4294L38.7956 71.5491ZM38.1214 70.9929C38.1657 70.9651 38.2025 70.9268 38.2283 70.8813C38.2541 70.8359 38.2682 70.7847 38.2693 70.7325C38.2693 70.6023 38.2092 70.5008 38.1179 70.5008C37.9621 70.5008 37.8421 70.6978 37.8421 70.9833C37.8421 71.0445 37.8456 71.1056 37.8525 71.1664L38.1214 70.9929Z" fill="#9AEE19"/>
<path d="M40.0038 70.7787C39.9292 70.706 39.8325 70.6602 39.7289 70.6486C39.6486 70.6604 39.5729 70.6934 39.5096 70.744C39.4809 70.9306 39.4461 71.5502 39.4357 71.8071L38.9519 71.9485L39.0015 71.4279C39.0224 71.2126 39.0468 70.9453 39.0468 70.7657C39.0468 70.6633 38.9937 70.646 38.9554 70.646C38.8759 70.6468 38.7967 70.6549 38.7188 70.6703L38.7362 70.5757L39.2486 70.3709C39.3097 70.3483 39.3722 70.3295 39.4357 70.3145C39.4461 70.3145 39.4852 70.3639 39.5061 70.3891V70.6217L39.5696 70.5653C39.6793 70.4733 39.8306 70.3145 39.9229 70.3145C40.0092 70.3212 40.0944 70.3378 40.1769 70.3639L40.0038 70.7787Z" fill="#9AEE19"/>
<path d="M39.6263 72.6888C39.7246 72.7026 39.8873 72.7313 39.9299 72.7313C40.2196 72.7313 40.3075 72.6046 40.3327 72.09L40.4032 70.6459H39.9543L40.1065 70.5053H40.4102C40.4276 70.3318 40.4484 70.0792 40.4876 69.9942C40.5353 69.9059 40.6029 69.8299 40.6851 69.772L41.0244 69.5473C41.1489 69.4581 41.293 69.4001 41.4446 69.3781C41.5478 69.3735 41.6511 69.3829 41.7517 69.4058L41.6108 69.6879C41.4893 69.6338 41.3583 69.6043 41.2254 69.6011C41.1713 69.5998 41.1181 69.6148 41.0727 69.6443C41.0274 69.6737 40.992 69.7161 40.9713 69.766C40.9217 69.8614 40.873 70.3648 40.8695 70.5027H41.4055C41.3799 70.5485 41.3418 70.5861 41.2955 70.611C41.2493 70.6359 41.1969 70.6471 41.1445 70.6433H40.8652L40.8304 71.2777C40.7947 71.9008 40.7564 72.2809 40.5833 72.4328L40.0465 72.9118C40.0004 72.9543 39.9195 72.9986 39.7037 72.9986H39.4531L39.6263 72.6888Z" fill="#9AEE19"/>
<path d="M42.714 71.5491C42.2729 71.8095 42.1137 71.8963 42.0711 71.9119C42.0056 71.9305 41.9382 71.9413 41.8701 71.944C41.5769 71.944 41.3438 71.7704 41.3438 71.3096C41.3438 71.0241 41.3864 70.644 41.6918 70.5138C41.8301 70.4539 42.1268 70.3125 42.2816 70.3125C42.4757 70.3125 42.5609 70.4184 42.5609 70.5945C42.5616 70.6594 42.5461 70.7233 42.5157 70.7806C42.4853 70.8379 42.441 70.8867 42.3869 70.9226C42.2706 71.0061 42.1491 71.0824 42.0232 71.1508L41.804 71.274C41.8536 71.5101 41.978 71.6125 42.2068 71.6125C42.373 71.6125 42.5914 71.5135 42.7436 71.4294L42.714 71.5491ZM42.0398 70.9929C42.0841 70.9651 42.1209 70.9268 42.1467 70.8813C42.1725 70.8359 42.1866 70.7847 42.1877 70.7325C42.1877 70.6023 42.1276 70.5008 42.0363 70.5008C41.8806 70.5008 41.7605 70.6978 41.7605 70.9833C41.7604 71.0445 41.7641 71.1057 41.7718 71.1664L42.0398 70.9929Z" fill="#9AEE19"/>
<path d="M44.1204 71.5422L43.6115 71.8416C43.5639 71.8718 43.5131 71.8965 43.4601 71.9153C43.3881 71.9321 43.3147 71.9417 43.2408 71.944C42.831 71.944 42.7188 71.6515 42.7188 71.3027C42.7172 71.1153 42.7497 70.9292 42.8145 70.7533C42.8389 70.6865 42.8885 70.6301 43.1077 70.5104C43.3122 70.3975 43.4888 70.3125 43.5914 70.3125C43.7924 70.3125 43.9229 70.4184 43.9516 70.6405L43.6297 70.8549L43.6123 70.841C43.6019 70.7247 43.5453 70.4939 43.3896 70.4939C43.2156 70.4939 43.1564 70.7542 43.1564 71.0501C43.1564 71.3461 43.2173 71.6099 43.5488 71.6099C43.7324 71.6099 43.976 71.5075 44.1352 71.4302L44.1204 71.5422Z" fill="#9AEE19"/>
<path d="M44.8417 69.8574L44.7704 70.5091H45.2228C45.1732 70.5794 45.1132 70.6497 45.0357 70.6497H44.7564C44.7337 70.8297 44.7206 71.0108 44.7173 71.1921C44.7173 71.3292 44.7991 71.5766 44.9539 71.5766C45.067 71.5529 45.1772 71.5174 45.2828 71.4707L45.2724 71.58L45.1375 71.6538C44.7738 71.8543 44.5624 71.9462 44.5337 71.9462C44.4874 71.938 44.4438 71.9187 44.4067 71.8898C44.2997 71.7418 44.2405 71.5647 44.237 71.3822C44.237 71.1782 44.2831 70.8615 44.2971 70.6497H43.8281L44.0256 70.5091H44.3119L44.3754 70.0232L44.8417 69.8574Z" fill="#9AEE19"/>
<path d="M46.132 71.6186L46.4391 71.1847L46.4782 71.209C46.4956 71.3547 46.5653 71.4891 46.6744 71.5876C46.7835 71.686 46.9245 71.7417 47.0716 71.7444C47.2456 71.7444 47.4283 71.6577 47.4283 71.4633C47.4283 71.2689 47.2543 71.1882 47.096 71.1283L46.8349 71.0337C46.5739 70.9417 46.393 70.7656 46.393 70.4905C46.393 69.9871 46.8985 69.7441 47.2404 69.7441C47.5336 69.7441 47.7206 69.857 47.7702 70.0913L47.4492 70.3976L47.4066 70.3768C47.3926 70.1477 47.2934 69.9047 47.029 69.9047C46.9905 69.9028 46.9521 69.9092 46.9163 69.9233C46.8805 69.9374 46.8482 69.959 46.8214 69.9866C46.7946 70.0142 46.7741 70.0472 46.7611 70.0834C46.7481 70.1195 46.7431 70.158 46.7462 70.1963C46.7462 70.4115 46.8915 70.5 47.0786 70.5599L47.5623 70.7144C47.7493 70.7777 47.8694 70.9044 47.8694 71.1092C47.8694 71.5431 47.3222 71.9475 46.7888 71.9475C46.6617 71.953 46.5351 71.9281 46.4196 71.8748C46.3041 71.8215 46.2031 71.7414 46.125 71.6412L46.132 71.6186Z" fill="#9AEE19"/>
<path d="M48.8839 71.8453C48.767 71.9033 48.6394 71.9369 48.5089 71.9442C48.1383 71.9442 48.0078 71.6301 48.0078 71.3133C48.0078 71.1762 48.0435 70.7848 48.2053 70.6616C48.3889 70.514 48.8143 70.3145 49.0571 70.3145C49.3494 70.3145 49.5904 70.488 49.5904 70.9176C49.5904 71.368 49.4059 71.604 49.3146 71.6465L48.8839 71.8453ZM48.8483 71.7186C49.0458 71.7186 49.1093 71.4582 49.1093 71.1111C49.1093 70.6494 48.9257 70.4984 48.7708 70.4984C48.6508 70.4984 48.4881 70.6138 48.4881 71.0582C48.4881 71.5025 48.6395 71.7186 48.8509 71.7186H48.8483Z" fill="#9AEE19"/>
<path d="M50.7825 69.6749C50.7121 69.6358 50.6129 69.5621 50.5285 69.5621C50.4441 69.5621 50.4415 69.6046 50.4258 69.773C50.4154 69.8754 50.4049 69.9812 50.3945 70.0836C50.35 70.4317 50.3239 70.782 50.3162 71.1328C50.3162 71.3931 50.391 71.5485 50.518 71.5485C50.6094 71.5485 50.7965 71.4496 50.8852 71.3975L50.8713 71.5129C50.7155 71.6292 50.5354 71.7316 50.3588 71.8409C50.2928 71.8927 50.2152 71.9279 50.1326 71.9433C50.0947 71.9392 50.059 71.9231 50.0308 71.8974C49.9465 71.7662 49.8809 71.6239 49.8359 71.4747C49.8359 71.3376 49.8925 70.7458 49.9351 70.1574C49.9456 70.0055 49.956 69.8016 50.0273 69.7417C50.1662 69.6271 50.3163 69.5268 50.4754 69.4423C50.5359 69.4017 50.607 69.3797 50.6799 69.379C50.7893 69.3777 50.8978 69.3992 50.9983 69.4423L50.7825 69.6749Z" fill="#9AEE19"/>
<path d="M50.6433 70.5841L50.9147 70.4748C51.0714 70.4072 51.2335 70.3529 51.3993 70.3125C51.4237 70.3125 51.4698 70.3411 51.4698 70.362C51.4692 70.3962 51.4669 70.4304 51.4628 70.4644L51.395 71.031C51.388 71.1057 51.3741 71.2107 51.3741 71.2532C51.3741 71.3304 51.4167 71.5491 51.5229 71.5491C51.6426 71.5341 51.7529 71.4765 51.8335 71.3869L51.9205 70.4253L52.4112 70.3125C52.3729 70.6197 52.3241 71.0276 52.3241 71.2289C52.3241 71.4302 52.3598 71.5491 52.4616 71.5491C52.5636 71.5237 52.6621 71.4858 52.7548 71.4363V71.5561L52.1084 71.9084C52.0769 71.9263 52.0424 71.9384 52.0066 71.944C51.9646 71.9386 51.9258 71.9186 51.897 71.8876C51.8629 71.7697 51.837 71.6497 51.8195 71.5283L51.4446 71.7609C51.2749 71.8659 51.1409 71.944 51.0809 71.944C51.0391 71.9378 51.0006 71.9179 50.9713 71.8876C50.921 71.7787 50.8946 71.6603 50.8938 71.5405C50.8938 71.4207 50.9573 70.8818 50.9573 70.808C50.9573 70.6987 50.9112 70.6423 50.7912 70.6423C50.7377 70.6453 50.6847 70.6535 50.6328 70.6666L50.6433 70.5841Z" fill="#9AEE19"/>
<path d="M53.4789 69.8574L53.4084 70.5091H53.8599C53.8104 70.5794 53.7503 70.6497 53.6729 70.6497H53.3936C53.3711 70.8297 53.3583 71.0108 53.3553 71.1921C53.3553 71.3292 53.4362 71.5766 53.592 71.5766C53.7048 71.553 53.8147 71.5175 53.92 71.4707L53.9095 71.58L53.7755 71.6538C53.4119 71.8543 53.1996 71.9462 53.1717 71.9462C53.1253 71.9384 53.0816 71.919 53.0447 71.8898C52.9358 71.7425 52.875 71.5652 52.8707 71.3822C52.8707 71.1782 52.9168 70.8615 52.9308 70.6497H52.4609L52.6584 70.5091H52.9447L53.0082 70.0232L53.4789 69.8574Z" fill="#9AEE19"/>
<path d="M53.8359 70.5581L54.0021 70.5026C54.0969 70.4705 54.4998 70.3151 54.5702 70.3151C54.5928 70.3162 54.6146 70.3234 54.6333 70.3359C54.652 70.3485 54.6669 70.3659 54.6764 70.3863L54.6198 70.9668C54.6094 71.097 54.592 71.2558 54.592 71.3331C54.592 71.4355 54.6164 71.5518 54.726 71.5518C54.8409 71.5411 54.9524 71.5075 55.054 71.4528V71.5726C54.9591 71.6359 54.358 71.9466 54.271 71.9466C54.2314 71.9379 54.194 71.921 54.1613 71.8971C54.1241 71.8128 54.1074 71.721 54.1126 71.629C54.1126 71.5587 54.1196 71.4815 54.1439 71.2064C54.1613 71.0198 54.1761 70.8228 54.1761 70.756C54.1761 70.6692 54.137 70.6223 54.0378 70.6223C53.9699 70.6278 53.9026 70.6394 53.8368 70.657L53.8359 70.5581ZM54.7121 69.9107L54.4049 70.2101L54.1439 69.8821L54.4798 69.6113L54.7121 69.9107Z" fill="#9AEE19"/>
<path d="M55.9542 71.8453C55.8375 71.9032 55.7103 71.9368 55.5801 71.9442C55.2095 71.9442 55.0781 71.6301 55.0781 71.3133C55.0781 71.1762 55.1138 70.7848 55.2765 70.6616C55.4601 70.514 55.8855 70.3145 56.1274 70.3145C56.4206 70.3145 56.6607 70.488 56.6607 70.9176C56.6607 71.368 56.4771 71.604 56.3849 71.6465L55.9542 71.8453ZM55.9186 71.7186C56.1169 71.7186 56.1796 71.4582 56.1796 71.1111C56.1796 70.6494 55.996 70.4984 55.8403 70.4984C55.7202 70.4984 55.5575 70.6138 55.5575 71.0582C55.5575 71.5025 55.7072 71.7186 55.9186 71.7186Z" fill="#9AEE19"/>
<path d="M57.4209 71.8143L56.9511 71.9453L57.0041 71.2832C57.0189 71.1096 57.0363 70.8779 57.0363 70.772C57.0363 70.6852 56.9972 70.6453 56.9128 70.6453C56.8448 70.6482 56.7772 70.6575 56.7109 70.6731L56.7222 70.5924L56.8667 70.5325C57.1668 70.4197 57.4104 70.3138 57.4496 70.3138C57.4887 70.3138 57.5166 70.3424 57.5166 70.4006C57.5166 70.5065 57.5096 70.6149 57.4992 70.7208L57.9934 70.4605C58.1112 70.3895 58.24 70.3382 58.3744 70.3086C58.3979 70.3141 58.4196 70.3254 58.4376 70.3415C58.4555 70.3576 58.4691 70.3779 58.4771 70.4006C58.4772 70.4586 58.4737 70.5166 58.4667 70.5741L58.431 70.9647C58.42 71.0583 58.4142 71.1524 58.4136 71.2467C58.4136 71.363 58.4484 71.5253 58.5832 71.5253C58.6931 71.508 58.7986 71.4697 58.8938 71.4125V71.5322L58.3675 71.8351C58.2951 71.8857 58.2135 71.9216 58.1273 71.941C58.0832 71.9326 58.0419 71.9132 58.0073 71.8845C57.9646 71.8559 57.9333 71.7188 57.9333 71.6129C57.9333 71.3908 57.9794 70.9187 57.9794 70.785C57.9808 70.7713 57.9791 70.7574 57.9744 70.7444C57.9697 70.7314 57.9622 70.7196 57.9524 70.7099C57.9425 70.7001 57.9306 70.6927 57.9176 70.6882C57.9045 70.6836 57.8905 70.682 57.8768 70.6835C57.7811 70.6835 57.6575 70.7538 57.4957 70.8484L57.4209 71.8143Z" fill="#9AEE19"/>
<path d="M59.4393 70.0854C59.6472 69.9266 59.8873 69.7434 60.1631 69.7434C60.4389 69.7434 60.6895 69.8736 60.7635 70.1487C60.8077 70.3389 60.8256 70.5342 60.8165 70.7293H60.8235C60.9195 70.4942 61.0403 70.2699 61.1837 70.0602C61.275 69.93 61.4517 69.7434 61.6317 69.7434C61.7273 69.7356 61.8222 69.7645 61.8971 69.8241L61.7449 70.2719C61.7067 70.2349 61.6615 70.2058 61.6119 70.1864C61.5623 70.167 61.5093 70.1578 61.456 70.1591C61.2576 70.1591 61.1271 70.3743 61.0393 70.5184C60.8339 70.849 60.82 71.3671 60.8096 71.7333L61.2646 71.7759L61.1028 71.8956H59.8203C59.863 71.8566 59.9335 71.7828 59.99 71.7759L60.2971 71.7333C60.3258 71.4235 60.3572 71.1137 60.3572 70.8004C60.3572 70.2398 60.0892 70.0567 59.796 70.0567C59.6794 70.0567 59.5167 70.1487 59.4219 70.1973L59.4393 70.0854Z" fill="#9AEE19"/>
<path d="M62.4386 71.8453C62.3216 71.9033 62.1941 71.9369 62.0636 71.9442C61.693 71.9442 61.5625 71.6301 61.5625 71.3133C61.5625 71.1762 61.5982 70.7848 61.76 70.6616C61.9436 70.514 62.369 70.3145 62.6118 70.3145C62.9041 70.3145 63.1442 70.488 63.1442 70.9176C63.1442 71.368 62.9606 71.604 62.8693 71.6465L62.4386 71.8453ZM62.4029 71.7186C62.6004 71.7186 62.664 71.4582 62.664 71.1111C62.664 70.6494 62.4804 70.4984 62.3255 70.4984C62.2054 70.4984 62.0428 70.6138 62.0428 71.0582C62.0428 71.5025 62.1915 71.7186 62.4029 71.7186Z" fill="#9AEE19"/>
<path d="M63.1997 70.5841L63.4711 70.4748C63.6276 70.4074 63.7894 70.3531 63.9549 70.3125C63.9801 70.3125 64.0253 70.3411 64.0253 70.362C64.0248 70.3962 64.0224 70.4304 64.0184 70.4644L63.9514 71.031C63.9444 71.1057 63.9305 71.2107 63.9305 71.2532C63.9305 71.3304 63.9723 71.5491 64.0784 71.5491C64.1983 71.5345 64.3087 71.4768 64.389 71.3869L64.476 70.4253L64.9667 70.3125C64.9276 70.6197 64.8797 71.0276 64.8797 71.2289C64.8797 71.4302 64.9145 71.5491 65.0172 71.5491C65.1192 71.5237 65.2177 71.4858 65.3104 71.4363V71.5561L64.6639 71.9084C64.6322 71.9264 64.5974 71.9384 64.5613 71.944C64.5193 71.9382 64.4807 71.9183 64.4517 71.8876C64.4185 71.7695 64.3926 71.6495 64.3742 71.5283L64.0001 71.7609C63.8305 71.8659 63.6965 71.944 63.6364 71.944C63.5946 71.938 63.556 71.9181 63.5268 71.8876C63.4766 71.7787 63.4502 71.6603 63.4494 71.5405C63.4494 71.4207 63.5129 70.8818 63.5129 70.808C63.5129 70.6987 63.4668 70.6423 63.3467 70.6423C63.293 70.6453 63.2397 70.6534 63.1875 70.6666L63.1997 70.5841Z" fill="#9AEE19"/>
<path d="M66.4838 70.7787C66.4093 70.706 66.3125 70.6602 66.2089 70.6486C66.1286 70.6603 66.0528 70.6932 65.9896 70.744C65.9609 70.9306 65.9261 71.5502 65.9157 71.8071L65.4319 71.9485L65.4807 71.4279C65.5024 71.2126 65.5268 70.9453 65.5268 70.7657C65.5268 70.6633 65.4737 70.646 65.4398 70.646C65.3603 70.6468 65.2811 70.6549 65.2031 70.6703L65.2205 70.5757L65.7321 70.3709C65.7935 70.3482 65.8563 70.3293 65.92 70.3145C65.9305 70.3145 65.9688 70.3639 65.9905 70.3891V70.6217L66.054 70.5653C66.1636 70.4733 66.315 70.3145 66.4072 70.3145C66.4935 70.3212 66.5788 70.3378 66.6613 70.3639L66.4838 70.7787Z" fill="#9AEE19"/>
<path d="M67.5226 71.6186L67.8297 71.1847L67.8689 71.209C67.8863 71.3547 67.9559 71.4891 68.065 71.5876C68.1741 71.686 68.3152 71.7417 68.4622 71.7444C68.6362 71.7444 68.8189 71.6577 68.8189 71.4633C68.8189 71.2689 68.6449 71.1882 68.4866 71.1283L68.2256 71.0337C67.9602 70.9417 67.7845 70.7656 67.7845 70.4905C67.7845 69.9871 68.2891 69.7441 68.6319 69.7441C68.9251 69.7441 69.1121 69.857 69.1608 70.0913L68.8398 70.3976L68.7972 70.3768C68.7833 70.1477 68.6849 69.9047 68.4196 69.9047C68.3812 69.903 68.3428 69.9094 68.3071 69.9236C68.2714 69.9378 68.2391 69.9594 68.2123 69.9869C68.1856 70.0145 68.165 70.0474 68.152 70.0835C68.139 70.1196 68.1338 70.158 68.1368 70.1963C68.1368 70.4115 68.2821 70.5 68.4692 70.5599L68.9529 70.7144C69.14 70.7777 69.26 70.9044 69.26 71.1092C69.26 71.5431 68.7128 71.9475 68.1795 71.9475C68.0523 71.953 67.9258 71.928 67.8103 71.8747C67.6948 71.8214 67.5938 71.7413 67.5156 71.6412L67.5226 71.6186Z" fill="#9AEE19"/>
<path d="M70.0909 70.408C70.1626 70.3535 70.2483 70.3204 70.338 70.3125C70.5442 70.3308 70.7481 70.3685 70.9471 70.4253V70.4609L70.8096 70.5633C70.7716 70.7724 70.7515 70.9843 70.7496 71.1968C70.7496 71.3521 70.7565 71.57 70.8522 71.57C70.9088 71.57 71.0106 71.5214 71.1907 71.4259V71.5457L70.9227 71.7114C70.6365 71.891 70.5407 71.944 70.4877 71.944C70.4255 71.9362 70.3686 71.9052 70.3285 71.8572C70.308 71.7645 70.2937 71.6706 70.2858 71.576L69.9718 71.7938C69.8799 71.8593 69.7787 71.9105 69.6716 71.9457C69.6365 71.9384 69.603 71.9252 69.5724 71.9067C69.5202 71.8438 69.4774 71.7736 69.4454 71.6984C69.4256 71.6036 69.4151 71.5071 69.4141 71.4103C69.4141 71.1708 69.4706 70.762 69.5689 70.7056L70.0909 70.408ZM70.3415 70.6232C70.2483 70.5918 70.1501 70.5774 70.0518 70.5807C69.9604 70.5807 69.8543 70.7178 69.8543 71.1092C69.8543 71.4858 69.9004 71.57 70.017 71.57C70.1138 71.5517 70.2039 71.5079 70.278 71.4433L70.3415 70.6232Z" fill="#9AEE19"/>
<path d="M71.9077 69.8574L71.8372 70.5091H72.2896C72.24 70.5794 72.18 70.6497 72.1026 70.6497H71.8233C71.8001 70.8297 71.7871 71.0107 71.7841 71.1921C71.7841 71.3292 71.8659 71.5766 72.0208 71.5766C72.1338 71.5529 72.2441 71.5174 72.3497 71.4707L72.3384 71.58L72.2044 71.6538C71.8407 71.8543 71.6293 71.9462 71.6006 71.9462C71.5542 71.9382 71.5106 71.9188 71.4735 71.8898C71.365 71.7423 71.3043 71.5651 71.2995 71.3822C71.2995 71.1782 71.3457 70.8615 71.3596 70.6497H70.8906L71.089 70.5091H71.3744L71.4387 70.0232L71.9077 69.8574Z" fill="#9AEE19"/>
<path d="M72.2891 70.5581L72.4552 70.5026C72.5509 70.4705 72.9529 70.3151 73.0242 70.3151C73.0466 70.3163 73.0682 70.3236 73.0868 70.3361C73.1053 70.3487 73.1201 70.366 73.1295 70.3863L73.073 70.9668C73.0625 71.097 73.0451 71.2558 73.0451 71.3331C73.0451 71.4355 73.0695 71.5518 73.1791 71.5518C73.2942 71.5409 73.406 71.5073 73.508 71.4528V71.5726C73.4123 71.6359 72.812 71.9466 72.7249 71.9466C72.6853 71.9382 72.6479 71.9213 72.6153 71.8971C72.5773 71.8131 72.5603 71.7211 72.5657 71.629C72.5657 71.5587 72.5727 71.4815 72.5979 71.2064C72.6153 71.0198 72.6292 70.8228 72.6292 70.756C72.6292 70.6692 72.5901 70.6223 72.4918 70.6223C72.4236 70.6278 72.356 70.6394 72.2899 70.657L72.2891 70.5581ZM73.1652 69.9107L72.8581 70.2101L72.5971 69.8821L72.932 69.6113L73.1652 69.9107Z" fill="#9AEE19"/>
<path d="M74.5233 70.7787H74.4876C74.3954 70.6416 74.2718 70.5184 74.0917 70.5184C74.049 70.5204 74.0085 70.5381 73.978 70.568C73.9475 70.598 73.9292 70.638 73.9264 70.6806C73.9264 70.9974 74.6746 70.8542 74.6746 71.3393C74.6746 71.6804 74.1378 71.9468 73.9012 71.9468C73.5941 71.9468 73.4949 71.7671 73.4531 71.6222L73.7385 71.4217C73.7881 71.5953 73.8446 71.7845 74.0604 71.7845C74.0904 71.7862 74.1204 71.7821 74.1487 71.7722C74.1771 71.7623 74.2032 71.7469 74.2255 71.7269C74.2478 71.7068 74.266 71.6826 74.2788 71.6556C74.2917 71.6285 74.2991 71.5992 74.3005 71.5693C74.3005 71.302 73.615 71.4148 73.615 70.9392C73.615 70.7379 73.9577 70.3153 74.3179 70.3153C74.3915 70.3104 74.465 70.3268 74.5295 70.3625C74.594 70.3982 74.6468 70.4517 74.6816 70.5166L74.5233 70.7787Z" fill="#9AEE19"/>
<path d="M74.3407 72.6887C74.4398 72.7026 74.6017 72.7312 74.6452 72.7312C74.934 72.7312 75.0228 72.6045 75.0471 72.0899L75.1176 70.6459H74.6695L74.8218 70.5053H75.1254C75.1428 70.3317 75.1637 70.0792 75.2029 69.9942C75.2506 69.9059 75.3182 69.8298 75.4004 69.772L75.7397 69.5472C75.8641 69.4581 76.0083 69.4001 76.1599 69.378C76.263 69.3736 76.3663 69.3829 76.467 69.4058L76.3261 69.6878C76.2045 69.634 76.0736 69.6045 75.9406 69.601C75.8865 69.5996 75.8333 69.6146 75.7879 69.6441C75.7425 69.6735 75.7072 69.716 75.6866 69.7659C75.637 69.8614 75.5874 70.3647 75.5839 70.5027H76.1207C76.0952 70.5485 76.057 70.5861 76.0108 70.611C75.9646 70.6359 75.9121 70.6471 75.8597 70.6433H75.5805L75.5457 71.2777C75.51 71.9007 75.4708 72.2808 75.2977 72.4327L74.7609 72.9117C74.7156 72.9543 74.6339 72.9985 74.419 72.9985H74.1719L74.3407 72.6887Z" fill="#9AEE19"/>
<path d="M76.7672 70.408C76.8388 70.3535 76.9245 70.3204 77.0142 70.3125C77.2204 70.3308 77.4243 70.3686 77.6233 70.4253V70.4609L77.4858 70.5633C77.4478 70.7724 77.4277 70.9843 77.4258 71.1968C77.4258 71.3521 77.4327 71.57 77.5276 71.57C77.5841 71.57 77.6868 71.5214 77.8669 71.4259V71.5457L77.598 71.7114C77.3127 71.891 77.217 71.944 77.1674 71.944C77.1054 71.9362 77.0488 71.9052 77.009 71.8572C76.9881 71.7646 76.9739 71.6706 76.9664 71.576L76.6523 71.7938C76.5604 71.8591 76.4592 71.9103 76.3521 71.9457C76.317 71.9386 76.2835 71.9254 76.253 71.9067C76.2004 71.844 76.1576 71.7738 76.1259 71.6984C76.1058 71.6036 76.095 71.5071 76.0938 71.4103C76.0937 71.1708 76.1503 70.762 76.2495 70.7056L76.7672 70.408ZM77.0177 70.6232C76.9244 70.5919 76.8263 70.5775 76.728 70.5807C76.6358 70.5807 76.5305 70.7178 76.5305 71.1092C76.5305 71.4858 76.5757 71.57 76.6923 71.57C76.7891 71.5517 76.8792 71.508 76.9533 71.4433L77.0177 70.6232Z" fill="#9AEE19"/>
<path d="M79.2376 71.5422L78.7286 71.8416C78.6811 71.8718 78.6303 71.8965 78.5773 71.9153C78.5053 71.9321 78.4319 71.9417 78.358 71.944C77.9482 71.944 77.836 71.6515 77.836 71.3027C77.8344 71.1153 77.8669 70.9292 77.9317 70.7533C77.9561 70.6865 78.0056 70.6301 78.2249 70.5104C78.4294 70.3975 78.606 70.3125 78.7086 70.3125C78.9096 70.3125 79.0401 70.4184 79.0688 70.6405L78.7478 70.8549L78.7295 70.841C78.7191 70.7247 78.6625 70.4939 78.5077 70.4939C78.3336 70.4939 78.2745 70.7542 78.2745 71.0501C78.2745 71.3461 78.3345 71.6099 78.666 71.6099C78.8496 71.6099 79.0932 71.5075 79.2524 71.4302L79.2376 71.5422Z" fill="#9AEE19"/>
<path d="M79.9589 69.8574L79.8884 70.5091H80.34C80.2904 70.5794 80.2303 70.6497 80.1529 70.6497H79.8736C79.8511 70.8297 79.8384 71.0108 79.8353 71.1921C79.8353 71.3292 79.9163 71.5766 80.072 71.5766C80.1848 71.553 80.2948 71.5175 80.4 71.4707L80.3896 71.58L80.2556 71.6538C79.8919 71.8543 79.6796 71.9462 79.6518 71.9462C79.6051 71.9382 79.5612 71.9188 79.5239 71.8898C79.4173 71.7416 79.3584 71.5646 79.3551 71.3822C79.3551 71.1782 79.4003 70.8615 79.4151 70.6497H78.9453L79.1428 70.5091H79.4273L79.4908 70.0232L79.9589 69.8574Z" fill="#9AEE19"/>
<path d="M80.3281 70.5581L80.4943 70.5026C80.5891 70.4705 80.992 70.3151 81.0624 70.3151C81.0849 70.3162 81.1067 70.3234 81.1255 70.3359C81.1442 70.3485 81.1591 70.3659 81.1686 70.3863L81.112 70.9668C81.1016 71.097 81.0842 71.2558 81.0842 71.3331C81.0842 71.4355 81.1085 71.5518 81.2182 71.5518C81.3331 71.5411 81.4446 71.5075 81.5462 71.4528V71.5726C81.4513 71.6359 80.8501 71.9466 80.7631 71.9466C80.7236 71.9379 80.6862 71.921 80.6535 71.8971C80.6159 71.8129 80.5989 71.721 80.6039 71.629C80.6039 71.5587 80.6118 71.4815 80.6361 71.2064C80.6535 71.0198 80.6683 70.8228 80.6683 70.756C80.6683 70.6692 80.6292 70.6223 80.53 70.6223C80.4621 70.6278 80.3948 70.6394 80.329 70.657L80.3281 70.5581ZM81.2042 69.9107L80.8963 70.2101L80.6352 69.8821L80.9711 69.6113L81.2042 69.9107Z" fill="#9AEE19"/>
<path d="M82.4308 71.8453C82.3141 71.9032 82.1868 71.9368 82.0567 71.9442C81.6852 71.9442 81.5547 71.6301 81.5547 71.3133C81.5547 71.1762 81.5904 70.7848 81.7531 70.6616C81.9366 70.514 82.3621 70.3145 82.6039 70.3145C82.8971 70.3145 83.1373 70.488 83.1373 70.9176C83.1373 71.368 82.9537 71.604 82.8615 71.6465L82.4308 71.8453ZM82.3951 71.7186C82.5935 71.7186 82.6561 71.4582 82.6561 71.1111C82.6561 70.6494 82.4726 70.4984 82.3168 70.4984C82.1968 70.4984 82.0341 70.6138 82.0341 71.0582C82.0341 71.5025 82.1837 71.7186 82.3951 71.7186Z" fill="#9AEE19"/>
<path d="M83.8896 71.8143L83.4198 71.9453L83.4729 71.2832C83.4868 71.1096 83.5051 70.8779 83.5051 70.772C83.5051 70.6852 83.4659 70.6453 83.3815 70.6453C83.3135 70.6482 83.2459 70.6575 83.1797 70.6731L83.1901 70.5924L83.3354 70.5325C83.6356 70.4197 83.8792 70.3138 83.9183 70.3138C83.9575 70.3138 83.9853 70.3424 83.9853 70.4006C83.9849 70.5076 83.9788 70.6145 83.9671 70.7208L84.4621 70.4605C84.58 70.3895 84.7087 70.3382 84.8432 70.3086C84.8667 70.3141 84.8884 70.3254 84.9063 70.3415C84.9243 70.3576 84.9379 70.3779 84.9458 70.4006C84.946 70.4586 84.9425 70.5166 84.9354 70.5741L84.8997 70.9647C84.8887 71.0583 84.8829 71.1524 84.8823 71.2467C84.8823 71.363 84.9171 71.5253 85.0511 71.5253C85.1613 71.5082 85.2671 71.4699 85.3626 71.4125V71.5322L84.8406 71.8351C84.7682 71.8857 84.6866 71.9216 84.6004 71.941C84.5563 71.9326 84.515 71.9132 84.4804 71.8845C84.4377 71.8559 84.4064 71.7188 84.4064 71.6129C84.4064 71.3908 84.4517 70.9187 84.4517 70.785C84.4532 70.7713 84.4516 70.7575 84.447 70.7444C84.4424 70.7314 84.435 70.7196 84.4252 70.7099C84.4154 70.7001 84.4036 70.6927 84.3906 70.6881C84.3775 70.6836 84.3636 70.682 84.3499 70.6835C84.2542 70.6835 84.1306 70.7538 83.9679 70.8484L83.8896 71.8143Z" fill="#9AEE19"/>
<defs>
<clipPath id="clip0_711_293">
<rect width="88" height="70.9995" fill="white"/>
</clipPath>
</defs>
</svg>
