<svg width="70" height="71" viewBox="0 0 70 71" fill="none" xmlns="http://www.w3.org/2000/svg">
<circle cx="35" cy="35.332" r="35" fill="#2D6A4F"/>
<g clip-path="url(#clip0_117_671)">
<path d="M47 15.832C43.688 15.832 40.688 17.176 38.516 19.348L35.534 22.318C35.24 22.612 34.766 22.612 34.472 22.318C34.472 22.318 31.496 19.342 31.49 19.348C29.312 17.176 26.312 15.832 23 15.832C16.37 15.832 11 21.202 11 27.832C11 30.334 11.768 32.662 13.082 34.582C13.082 34.582 13.634 35.458 14.282 36.106C14.93 36.754 32.882 54.706 32.882 54.706C33.47 55.294 34.238 55.588 35 55.588C35.768 55.588 36.536 55.294 37.118 54.706C37.118 54.706 55.064 36.76 55.718 36.106C56.366 35.458 56.918 34.582 56.918 34.582C58.232 32.662 59 30.334 59 27.832C59 21.202 53.63 15.832 47 15.832ZM55.034 34.564C55.034 34.564 54.578 35.128 53.666 36.034C52.76 36.946 36.062 53.644 36.062 53.644C35.768 53.938 35.384 54.082 35 54.082C34.616 54.082 34.232 53.938 33.938 53.644C33.938 53.644 17.24 36.946 16.328 36.034C15.416 35.122 14.96 34.564 14.96 34.564C13.436 32.74 12.5 30.4 12.5 27.832C12.5 22.03 17.198 17.332 23 17.332C25.898 17.332 28.526 18.508 30.422 20.41L30.428 20.404L33.938 23.914C34.526 24.502 35.474 24.502 36.062 23.914L39.572 20.404L39.578 20.41C41.474 18.508 44.102 17.332 47 17.332C52.796 17.332 57.5 22.03 57.5 27.832C57.5 30.4 56.564 32.74 55.034 34.564Z" fill="white" stroke="white" stroke-miterlimit="10"/>
<path d="M47 20.332C46.586 20.332 46.25 20.668 46.25 21.082C46.25 21.496 46.586 21.832 47 21.832C50.312 21.832 53 24.52 53 27.832C53 28.246 53.336 28.582 53.75 28.582C54.164 28.582 54.5 28.246 54.5 27.832C54.5 23.692 51.14 20.332 47 20.332Z" fill="white" stroke="white" stroke-miterlimit="10"/>
</g>
<defs>
<clipPath id="clip0_117_671">
<rect width="48" height="48" fill="white" transform="translate(11 11.332)"/>
</clipPath>
</defs>
</svg>
