<svg width="82" height="84" viewBox="0 0 82 84" fill="none" xmlns="http://www.w3.org/2000/svg">
<rect width="82" height="84" rx="15" fill="#2D6A4F"/>
<path d="M54.1642 43.4993C52.1642 41.4993 48.9975 41.4993 46.9975 43.4993L44.4975 45.8327C43.8308 46.4993 42.6642 46.4993 41.9975 45.8327L37.1642 40.9993C34.4975 38.3327 40.9975 37.166 40.9975 32.4993C40.9975 29.666 39.1642 28.4993 35.8308 25.166C33.8308 23.166 30.6642 23.166 28.6642 25.166L24.9975 28.8327C17.1642 36.666 29.8308 55.666 43.4975 59.666C47.3308 60.8327 51.4975 60.8327 54.1642 57.9993L57.8308 54.3327C59.8308 52.3327 59.8308 49.166 57.8308 47.166L54.1642 43.4993ZM55.4975 51.9993L51.8308 55.666C50.3308 57.166 47.6642 57.4993 44.3308 56.4993C32.1642 52.8327 22.1642 36.3327 27.3308 31.166C32.9975 25.4993 31.4975 25.4993 37.1642 31.166C39.8308 33.8327 33.1642 34.9993 33.1642 39.666C33.1642 42.4993 34.8308 43.4993 39.4975 48.166C41.4975 50.166 44.6642 50.166 46.6642 48.166L49.1642 45.666C49.8308 44.9993 50.9975 44.9993 51.6642 45.666L55.3308 49.3327C56.1642 50.166 56.1642 51.3327 55.4975 51.9993Z" fill="white"/>
<path d="M43.4948 36.9993C44.8281 36.9993 45.9948 38.166 45.9948 39.4993C45.9948 40.4993 46.6615 41.166 47.6615 41.166C50.9948 41.166 49.1615 33.666 43.4948 33.666C42.4948 33.666 41.8281 34.3327 41.8281 35.3327C41.8281 36.3327 42.4948 36.9993 43.4948 36.9993Z" fill="white"/>
<path d="M43.4948 31.9993C47.6615 31.9993 50.9948 35.3327 50.9948 39.4993C50.9948 40.4993 51.6615 41.166 52.6615 41.166C56.8281 41.166 53.4948 28.666 43.4948 28.666C42.4948 28.666 41.8281 29.3327 41.8281 30.3327C41.8281 31.3327 42.4948 31.9993 43.4948 31.9993Z" fill="white"/>
<path d="M43.4948 26.9993C50.3281 26.9993 55.9948 32.666 55.9948 39.4993C55.9948 40.4993 56.6615 41.166 57.6615 41.166C62.3281 41.166 57.6615 23.666 43.4948 23.666C42.4948 23.666 41.8281 24.3327 41.8281 25.3327C41.8281 26.3327 42.4948 26.9993 43.4948 26.9993Z" fill="white"/>
</svg>
