<svg width="103" height="67" viewBox="0 0 103 67" fill="none" xmlns="http://www.w3.org/2000/svg">
<g clip-path="url(#clip0_140_228)">
<path d="M62.7984 0H66.0476C66.1072 0.119919 66.2236 0.119919 66.3333 0.133243C69.6955 0.435568 72.936 1.5227 75.7858 3.30443C79.6388 5.69081 82.6064 8.90064 84.8714 12.7647C87.3706 17.0285 88.7975 21.6387 89.2944 26.5181C89.4149 27.7079 89.6464 28.606 91.0151 28.7832C91.1236 28.8125 91.2272 28.8574 91.3224 28.9164C97.3172 31.7825 100.68 36.6619 102.299 42.859C102.588 43.9636 102.77 45.0948 103.002 46.2141V50.8776C102.854 50.9095 102.867 51.0281 102.856 51.1347C102.615 53.4473 101.925 55.693 100.825 57.7503C98.0971 62.8135 93.7079 65.541 88.099 66.5856C87.2501 66.7428 86.3728 66.7095 85.5483 66.9933H83.9237C83.9562 64.7175 83.5176 62.499 83.0194 60.2965C82.3435 57.3423 81.4025 54.4529 80.2074 51.6624C78.823 48.4176 77.107 45.3198 75.0859 42.4166C73.3708 39.9481 71.4049 37.6578 69.2183 35.5813C68.9313 35.3054 68.8717 35.0843 69.2481 34.8418C69.8682 34.442 70.4557 33.989 71.1002 33.6332C72.8602 32.6619 73.2433 30.2182 72.8398 28.59C72.737 28.1783 72.7045 27.6373 72.1629 27.4321V27.4241C72.1246 27.1084 71.9894 26.8118 71.7753 26.5737C71.5612 26.3356 71.2785 26.1675 70.9648 26.0917L70.9499 26.0784C70.8362 25.7186 70.5722 25.5774 70.2066 25.58H70.1606L70.1349 25.5427C69.3984 24.8125 68.5103 24.7752 67.5626 24.9831L67.2796 24.9924C67.0589 24.9232 66.8215 24.9255 66.6022 24.9989C66.3829 25.0722 66.1933 25.2129 66.0612 25.4001L66.0382 25.4175C65.4682 25.5374 65.0214 25.7972 64.882 26.4061L64.8942 26.3635L64.7168 26.6233C64.4325 26.6846 64.3418 26.9111 64.2511 27.1443C63.8987 28.038 63.8155 29.0127 64.0115 29.9517C64.0575 30.1916 64.1049 30.4594 63.8761 30.6326C63.6148 30.8311 63.4144 30.5926 63.2127 30.474C63.011 30.3555 62.8065 30.1996 62.6008 30.0597C60.8679 28.8671 59.0997 27.7292 57.2193 26.7752C54.1849 25.2242 51.0127 23.9495 47.7424 22.9671C43.4264 21.6867 39.0156 21.0431 34.5208 20.9032C32.2712 20.84 30.0199 20.9291 27.7828 21.1697C25.9916 21.3575 24.2032 21.5867 22.4581 22.0131C21.6864 22.2023 20.7062 22.0944 20.25 23.0124C20.8701 21.4028 21.7866 19.9572 22.8534 18.6074C25.9158 14.73 29.9096 12.9792 34.9121 13.5508C36.6721 13.752 38.3386 14.237 40.0052 14.7807C41.6298 15.3136 41.9263 15.1884 42.8564 13.8C44.8438 10.83 47.0222 8.02657 49.8029 5.7108C52.9899 3.0566 56.5369 1.14856 60.6756 0.370416C61.3661 0.251829 62.112 0.274481 62.7984 0ZM87.3164 30.4501C87.3411 29.2394 87.2468 28.0293 87.0348 26.8365C86.1927 21.7453 83.7355 17.6134 79.4858 14.5448C76.7782 12.5848 73.7212 11.3816 70.4666 10.6355C69.0193 10.3024 67.5599 10.0226 66.0693 9.96926C65.4357 9.9466 64.9036 10.1904 64.6979 10.8327C64.5002 11.4522 64.6193 12.0199 65.1555 12.4542C65.4695 12.7101 65.8595 12.7314 66.2385 12.774C68.6646 13.0512 71.0379 13.5575 73.3123 14.4409C77.5498 16.0891 80.925 18.7047 82.8691 22.8685C84.4937 26.3435 84.7387 30.001 84.2229 33.7412C84.097 34.6659 84.5505 35.3907 85.3899 35.5493C86.1752 35.6972 86.8792 35.1615 87.0362 34.2582C87.2481 32.9999 87.3419 31.7252 87.3164 30.4501ZM82.1962 30.9324C82.2206 28.1889 81.7549 25.7546 80.5202 23.5347C77.4158 17.9598 72.1995 15.8719 66.1275 15.2843C65.3409 15.2084 64.7737 15.8346 64.7588 16.6168C64.7425 17.4922 65.2841 17.9958 66.3834 18.1117C68.1518 18.2958 69.8871 18.7126 71.5429 19.3509C76.2353 21.1564 79.3139 25.1137 79.3125 30.3488C79.3125 31.3255 79.2557 32.2942 79.1921 33.2668C79.1325 34.1769 79.6713 34.7751 80.4687 34.8351C81.2661 34.8951 81.916 34.3381 82.0297 33.4307C82.1434 32.5233 82.2382 31.6266 82.1962 30.9324ZM77.5837 31.1989C77.5458 29.6586 77.3657 28.3901 76.9433 27.1643C75.2944 22.3822 70.4991 20.177 66.1126 19.9159C65.2705 19.8666 64.7412 20.4062 64.6776 21.1977C64.6492 21.5446 64.7575 21.8891 64.98 22.1597C65.2026 22.4303 65.5223 22.6063 65.873 22.6513C67.0035 22.8419 68.138 23.0031 69.2224 23.3988C71.4224 24.1983 73.1702 25.5041 74.0745 27.7106C74.667 29.1572 74.8495 30.7349 74.6025 32.2755C74.4469 33.3068 74.8963 34.061 75.7858 34.1582C76.7768 34.2648 77.3535 33.7238 77.4429 32.6059C77.4889 32.0516 77.6189 31.5067 77.5837 31.1962V31.1989Z" fill="#7DC312"/>
<path d="M20.226 23.0293C20.6823 22.1112 21.6624 22.2192 22.4341 22.03C24.1792 21.6036 25.9677 21.3744 27.7588 21.1865C29.9959 20.9459 32.2473 20.8569 34.4968 20.9201C38.9916 21.0533 43.4024 21.7035 47.7184 22.984C50.9887 23.9664 54.1609 25.241 57.1953 26.7921C59.0758 27.7461 60.8507 28.884 62.5768 30.0765C62.7799 30.2164 62.9829 30.3657 63.1887 30.4909C63.3945 30.6162 63.5949 30.848 63.8521 30.6495C64.0782 30.4763 64.0308 30.2084 63.9875 29.9686C63.7915 29.0296 63.8747 28.0548 64.2271 27.1612C64.3178 26.928 64.4085 26.7015 64.6928 26.6402C64.1418 27.5329 64.0159 28.5056 64.1405 29.5209C64.3903 31.3532 63.9439 33.2118 62.8868 34.74C61.1268 37.3409 59.2612 39.8632 57.3862 42.3815C57.0694 42.8092 56.739 42.8719 56.2449 42.732C50.8295 41.1837 45.4142 41.2663 40.0191 42.8652C39.46 43.0318 39.1229 42.9318 38.7817 42.4588C36.751 39.6407 34.8082 36.7613 33.208 33.6768C32.9968 33.2677 32.7924 32.8506 32.7599 32.3696C32.6529 30.7494 32.3889 29.1585 31.7079 27.6622C31.1095 26.3484 30.2972 25.2171 28.7539 24.892C26.3819 24.3964 24.163 25.6475 23.505 27.9646C22.7658 30.5642 23.2654 31.9033 25.1188 33.0532C25.6143 33.3596 26.1233 33.6501 26.5904 33.9939C27.8089 34.8959 29.1627 35.726 29.906 37.0705C31.226 39.4688 32.6028 41.8272 33.9106 44.227C34.4522 45.2209 34.44 45.2103 33.4909 45.8152C26.154 50.4929 21.8425 57.0876 20.5564 65.5992C20.4954 65.9989 20.3601 66.1614 19.935 66.2028C17.5441 66.4333 15.1667 66.38 12.8124 65.8976C9.62412 65.2447 6.83657 63.851 4.61086 61.4686C1.99795 58.6705 0.723993 55.2995 0.27858 51.5806C0.255565 51.3928 0.316488 51.1556 0.0078125 51.1476V48.083C0.219011 47.9711 0.143196 47.7699 0.143196 47.6073C0.168484 46.6558 0.26668 45.7076 0.436969 44.7706C1.26823 39.9925 3.08102 35.6701 6.65109 32.2191C9.62953 29.3384 13.205 28.0139 17.4046 28.6135C17.9597 28.6935 18.1587 28.5269 18.3036 28.0352C18.7977 26.3177 19.3799 24.6229 20.226 23.0293Z" fill="#69AF13"/>
<path d="M64.8578 26.4157L64.8686 26.4064C64.8693 26.3957 64.8693 26.3851 64.8686 26.3744L64.8578 26.4157ZM76.2382 65.7651V65.7518C76.1701 65.4786 76.1176 65.2019 76.0811 64.923C75.2918 59.8065 73.1487 55.2962 69.7628 51.3522C67.7473 48.9899 65.3277 46.9927 62.6131 45.4508C62.1637 45.1963 62.0405 45.0138 62.3789 44.5181C64.2743 41.7747 65.8786 38.8473 67.686 36.0452C68.3182 35.0645 69.297 34.5036 70.2664 33.9613C71.4848 33.2777 72.3242 32.3624 72.6925 31.0126C73.0431 29.7295 72.7155 28.5689 72.1509 27.431V27.423L70.9528 26.0906L70.9379 26.0759C70.6468 25.972 70.4261 25.7681 70.1946 25.5776L70.1486 25.5843L70.1229 25.5456C69.323 25.1601 68.4411 24.9682 67.5506 24.986L67.2676 24.9967L66.0492 25.4044L66.0262 25.4204L64.8808 26.3997C64.8795 26.4509 64.8618 26.5004 64.8302 26.5411C64.7986 26.5818 64.7547 26.6116 64.7048 26.6262C64.1538 27.5176 64.0279 28.4916 64.1525 29.507C64.4016 31.3388 63.9552 33.1967 62.8988 34.7248C61.1388 37.3257 59.2732 39.8493 57.3982 42.3676C57.0814 42.794 56.751 42.8579 56.2569 42.7167C50.8415 41.1684 45.4262 41.251 40.0311 42.8499C39.472 43.0165 39.1349 42.9165 38.7937 42.4502C36.763 39.6308 34.8202 36.7527 33.22 33.6668C33.0088 33.2591 32.8043 32.842 32.7718 32.3597C32.6649 30.7395 32.4009 29.1485 31.7199 27.6535C31.1107 26.3491 30.2984 25.2165 28.755 24.8927C26.3831 24.3971 24.1641 25.6469 23.5062 27.9653C22.767 30.5649 23.2665 31.9027 25.1199 33.0526C25.6155 33.3603 26.1245 33.6495 26.5916 33.9933C27.81 34.8953 29.1639 35.7254 29.9071 37.0698C31.2271 39.4682 32.6026 41.8266 33.9118 44.2263C34.4533 45.2217 34.4411 45.2097 33.4921 45.8159C26.1552 50.4936 21.8437 57.0878 20.5575 65.5985C20.5491 65.6607 20.5359 65.7222 20.5183 65.7824C20.5183 65.7824 20.5183 65.7891 20.5183 65.7931C20.4412 66.1881 20.4067 66.5901 20.4154 66.9923C39.0667 66.9923 57.7177 66.9923 76.3681 66.9923C76.3704 66.5798 76.3269 66.1683 76.2382 65.7651ZM58.0615 54.0917C58.8129 52.9538 60.252 53.0404 60.8653 54.2582C61.063 54.6579 61.239 55.0643 61.1889 55.528C61.1784 55.748 61.1526 55.967 61.1117 56.1836C60.8694 57.1163 60.1789 57.7439 59.4262 57.7518C58.7046 57.7598 58.0345 57.1762 57.7596 56.2529C57.6431 55.8933 57.6097 55.5126 57.6619 55.1386C57.7142 54.7647 57.8507 54.407 58.0615 54.0917ZM35.3428 55.1576C35.4484 54.1063 36.2187 53.2802 37.0865 53.2842C37.9543 53.2882 38.6868 54.069 38.81 55.103C38.8755 55.4965 38.8477 55.8996 38.7287 56.2808C38.3808 57.2535 37.7147 57.8265 36.9755 57.7465C36.1551 57.6546 35.447 56.8525 35.3428 55.8904C35.3359 55.7573 35.3359 55.6239 35.3428 55.4907C35.3414 55.3841 35.332 55.2722 35.3428 55.1629V55.1576Z" fill="#F6F6F5"/>
<path d="M81.0669 66.9962C80.1747 66.6897 79.2189 66.8083 78.3118 66.5964C78.0735 66.5405 77.8258 66.5151 77.5834 66.4725C76.2607 66.2393 76.2783 66.2367 76.0753 64.9256C75.286 59.809 73.1428 55.2987 69.7569 51.3534C67.7414 48.9916 65.3218 46.9948 62.6073 45.4534C62.1578 45.1989 62.0346 45.015 62.3731 44.5207C64.2684 41.7759 65.8727 38.8499 67.6801 36.0478C68.3124 35.0671 69.2912 34.5061 70.2605 33.9625C71.479 33.2803 72.3184 32.3636 72.6866 31.0152C73.0372 29.7307 72.7096 28.5702 72.1451 27.4336C72.6866 27.6388 72.7232 28.1798 72.822 28.5915C73.2281 30.2197 72.8409 32.6634 71.0823 33.6347C70.4379 33.9905 69.8503 34.4448 69.2303 34.8432C68.8539 35.0857 68.9135 35.3069 69.2005 35.5827C71.387 37.6593 73.353 39.9495 75.068 42.4181C77.0892 45.3212 78.8052 48.4191 80.1896 51.6639C81.3846 54.4543 82.3256 57.3437 83.0015 60.298C83.5038 62.5019 83.9465 64.7204 83.9099 66.9962H81.0669Z" fill="#69AF13"/>
<path d="M87.3186 30.4498C87.3471 31.7237 87.2564 32.9976 87.0479 34.2552C86.8935 35.1586 86.1868 35.6942 85.4016 35.5463C84.5622 35.3877 84.1087 34.6629 84.2346 33.7382C84.745 29.9981 84.4986 26.3405 82.8807 22.8656C80.9326 18.7057 77.548 16.0861 73.3145 14.4379C71.0401 13.5545 68.6668 13.0482 66.2407 12.771C65.8616 12.7284 65.4717 12.7071 65.1577 12.4513C64.6161 12.0169 64.5024 11.4493 64.7001 10.8297C64.9058 10.1875 65.4379 9.94363 66.0715 9.96628C67.5607 10.0222 69.0215 10.3021 70.4688 10.6325C73.718 11.3787 76.7749 12.5818 79.488 14.5419C83.7377 17.6064 86.1949 21.737 87.037 26.8335C87.2492 28.0272 87.3435 29.2382 87.3186 30.4498Z" fill="#F6F6F5"/>
<path d="M82.1982 30.9333C82.2402 31.6275 82.14 32.5323 82.029 33.4343C81.918 34.3364 81.283 34.9 80.468 34.8387C79.653 34.7774 79.1318 34.1805 79.1913 33.2704C79.255 32.2977 79.3105 31.3291 79.3118 30.3524C79.3118 25.1173 76.2345 21.1586 71.5421 19.3545C69.8864 18.7162 68.1511 18.2994 66.3827 18.1153C65.2861 17.9994 64.7445 17.4958 64.7581 16.6204C64.7716 15.8356 65.3402 15.2093 66.1268 15.2879C72.1988 15.8755 77.4151 17.9634 80.5194 23.5383C81.7568 25.7502 82.2226 28.1899 82.1982 30.9333Z" fill="#F6F6F5"/>
<path d="M77.5835 31.1965C77.6187 31.5069 77.4887 32.0519 77.4481 32.6035C77.3588 33.7214 76.782 34.2624 75.791 34.1558C74.9015 34.0585 74.4521 33.3044 74.6078 32.2731C74.8547 30.7324 74.6722 29.1547 74.0798 27.7082C73.1754 25.5017 71.4276 24.1999 69.2276 23.3964C68.1445 22.9967 67.0087 22.8395 65.8782 22.6489C65.5277 22.6036 65.2084 22.4274 64.9861 22.1568C64.7639 21.8863 64.6558 21.542 64.6841 21.1952C64.7478 20.4038 65.2771 19.8628 66.1192 19.9134C70.5029 20.1799 75.2982 22.3798 76.9499 27.1619C77.3655 28.3877 77.5456 29.6562 77.5835 31.1965Z" fill="#F6F6F5"/>
<path d="M70.1192 25.5512C69.3198 25.1643 68.4375 24.9723 67.5469 24.9916C68.4919 24.7838 69.3827 24.8157 70.1192 25.5512Z" fill="#69AF13"/>
<path d="M72.1435 27.4262L70.9453 26.0938C71.259 26.1696 71.5418 26.3377 71.7558 26.5758C71.9699 26.8139 72.1051 27.1105 72.1435 27.4262Z" fill="#69AF13"/>
<path d="M66.0155 25.4277L64.8594 26.4151C64.9988 25.8075 65.4456 25.5477 66.0155 25.4277Z" fill="#69AF13"/>
<path d="M67.2575 25.0015L66.0391 25.4092C66.1712 25.2219 66.3608 25.0813 66.5801 25.0079C66.7994 24.9345 67.0368 24.9323 67.2575 25.0015Z" fill="#69AF13"/>
<path d="M70.9308 26.0823C70.6558 25.9595 70.4043 25.7909 70.1875 25.584C70.553 25.5814 70.817 25.7226 70.9308 26.0823Z" fill="#69AF13"/>
<path d="M64.8727 26.373C64.8782 26.4299 64.8636 26.4868 64.8313 26.5342C64.7989 26.5816 64.7509 26.6165 64.6953 26.6329L64.8727 26.373Z" fill="#69AF13"/>
<path d="M35.3411 55.4929C35.3411 55.3823 35.3316 55.2717 35.3411 55.1625C35.4467 54.1099 36.217 53.2851 37.0848 53.2891C37.9526 53.2931 38.6851 54.0739 38.8083 55.1078C38.8745 55.5009 38.8467 55.9038 38.727 56.2844C38.3791 57.2584 37.713 57.83 36.9738 57.7501C36.1534 57.6581 35.4453 56.856 35.3411 55.8926C35.3342 55.7595 35.3342 55.6261 35.3411 55.4929Z" fill="#69AF13"/>
<path d="M61.1918 55.5287C61.1818 55.7487 61.156 55.9678 61.1146 56.1843C60.8723 57.117 60.1818 57.7445 59.4304 57.7525C58.7075 57.7605 58.0373 57.1756 57.7625 56.2522C57.6457 55.8928 57.6123 55.5122 57.6647 55.1384C57.7172 54.7646 57.8543 54.4071 58.0658 54.0923C58.8158 52.9545 60.2549 53.0397 60.8682 54.2576C61.0672 54.6506 61.2419 55.0637 61.1918 55.5287Z" fill="#69AF13"/>
</g>
<defs>
<clipPath id="clip0_140_228">
<rect width="103" height="67" fill="white"/>
</clipPath>
</defs>
</svg>
